<?xml version="1.0" encoding="utf-8"?>
<!-- Generator: Adobe Illustrator 25.0.1, SVG Export Plug-In . SVG Version: 6.00 Build 0)  -->
<svg version="1.1" id="Layer_1" xmlns="http://www.w3.org/2000/svg" xmlns:xlink="http://www.w3.org/1999/xlink" x="0px" y="0px"
	 width="80px" height="19.8px" viewBox="0 0 80 19.8" style="enable-background:new 0 0 80 19.8;" xml:space="preserve">
<style type="text/css">
	.st0{fill:#008BB6;}
</style>
<path class="st0" d="M51,19.6v-1.9c0,0-0.1-1.5-1.6-1.5h-2.5v3.3h-2.5v-9.4h6c0,0,3.1-0.4,3.1,2.7c0,1.6-1.4,2.2-1.4,2.2
	s1.2,0.5,1.2,2.1v2.3H51 M46.9,14.1h2.6c0.7,0,1.4-0.4,1.4-0.9c0-0.5-0.6-0.9-1.4-0.9h-2.6V14.1 M34.4,19.6h-2.2l-2.6-2.8L27,19.6
	h-9.3v-9.5h9l2.8,3l2.8-3h7.9c0,0,3.1-0.4,3.1,2.7c0,2.8-1,3.7-4.2,3.7h-2.5v3.1H34.4 M31.2,14.9l3.1,3.3v-6.5L31.2,14.9 M20.2,17.5
	h5.2l2.5-2.6l-2.5-2.6h-5.2v1.5h5.1v2.1h-5.1V17.5 M36.8,14.1h2.6c0.7,0,1.4-0.4,1.4-0.9c0-0.5-0.6-0.9-1.4-0.9h-2.6V14.1
	 M67.9,19.6h-4.4v-2.2h3.8c0,0,1.4,0.1,1.4-0.7c0-0.9-2.1-0.7-2.1-0.7s-3.5,0.2-3.5-2.8s3.1-3,3.1-3H71v2.2h-3.8
	c0,0-1.4-0.2-1.4,0.6c0,0.7,1.9,0.6,1.9,0.6s3.8-0.2,3.8,2.6c0,3.1-2.5,3.3-3.3,3.3C68,19.6,67.9,19.6,67.9,19.6 M54.6,19.6v-9.4
	h7.8v2.2h-5.2V14h5.1V16h-5.1v1.6h5.2v2.1h-7.8 M76.5,19.6h-4.4v-2.2h3.8c0,0,1.4,0.1,1.4-0.7c0-0.9-2.1-0.7-2.1-0.7
	s-3.5,0.2-3.5-2.8s3.1-3,3.1-3h4.7v2.2h-3.8c0,0-1.4-0.2-1.4,0.6c0,0.7,1.9,0.6,1.9,0.6s3.8-0.2,3.8,2.6c0,3.1-2.5,3.3-3.3,3.3
	C76.7,19.6,76.5,19.6,76.5,19.6 M42,9.5V7.7c0,0-0.1-1.5-1.6-1.5h-2.5v3.3h-2.5V0.1h6c0,0,3.1-0.4,3.1,2.7c0,1.6-1.4,2.2-1.4,2.2
	s1.2,0.5,1.2,2.1v2.3L42,9.5 M37.9,4h2.6c0.7,0,1.4-0.4,1.4-0.9c0-0.5-0.6-0.9-1.4-0.9h-2.6V4 M71.2,9.5l-4-6.3v6.3h-4.8l-0.9-2H57
	l-0.9,2h-3.8c0,0-3.3-0.5-3.3-4.4C49-0.1,52.8,0,53,0L56,0.1v2h-2.5c0,0-1.6,0-1.9,2.1v0.6c0,3.2,2.8,2.2,3,2.2l3.1-7h3.5l3.7,8.5V0
	h3.5l3.8,6.2V0h2.5v9.5H71.2 M58.1,5.1h2.5l-1.2-2.8L58.1,5.1 M22.2,9.5V3L19,9.5h-2L14,3v6.5H9l-0.9-2H3.6l-0.9,2H0l4.1-9.4h3.5
	l3.8,8.6V0.1h4L18,6l2.7-5.9h4v9.4H22.2 M4.7,5.2h2.5L5.9,2.3L4.7,5.2 M26.4,9.5V0.1h7.8v2.2H29v1.5h5.1v2H29v1.6h5.2v2.1H26.4
	 M45.7,9.5V0h2.5v9.5H45.7"/>
</svg>
