<?xml version="1.0" encoding="utf-8"?>
<!-- Generator: Adobe Illustrator 25.0.1, SVG Export Plug-In . SVG Version: 6.00 Build 0)  -->
<svg version="1.1" id="Layer_1" xmlns="http://www.w3.org/2000/svg" xmlns:xlink="http://www.w3.org/1999/xlink" x="0px" y="0px"
	 width="80px" height="20.7px" viewBox="0 0 80 20.7" style="enable-background:new 0 0 80 20.7;" xml:space="preserve">
<style type="text/css">
	.st0{fill:#0079BE;}
	.st1{fill:#FFFFFF;}
	.st2{fill:#111111;}
</style>
<g id="__x0023_Layer_x0020_1">
	<path class="st0" d="M15.3,20.7c5.7,0,10.8-4.6,10.8-10.3C26.2,4.3,21,0,15.3,0h-4.9C4.7,0,0,4.3,0,10.5c0,5.7,4.7,10.3,10.5,10.3
		H15.3z"/>
	<path class="st1" d="M10.5,0.9C5.2,0.9,1,5.1,1,10.3c0,5.2,4.2,9.5,9.5,9.5c5.2,0,9.5-4.2,9.5-9.5C20,5.1,15.7,0.9,10.5,0.9z
		 M4.5,10.3L4.5,10.3c0-2.6,1.6-4.7,3.9-5.6V16C6.1,15.1,4.5,12.9,4.5,10.3z M12.6,16L12.6,16V4.7c2.3,0.9,3.9,3.1,3.9,5.6
		C16.5,12.9,14.9,15.1,12.6,16z"/>
	<path class="st2" d="M29.5,4.5c0-1-0.5-0.9-1-0.9V3.2c0.4,0,0.9,0,1.3,0c0.5,0,1.1,0,1.9,0c2.8,0,4.4,1.9,4.4,3.8
		c0,1.1-0.6,3.8-4.5,3.8c-0.6,0-1.1,0-1.6,0c-0.5,0-1,0-1.5,0v-0.3c0.7-0.1,1-0.1,1-0.8L29.5,4.5L29.5,4.5z M30.6,9.6L30.6,9.6
		c0,0.8,0.6,0.9,1.1,0.9c2.4,0,3.1-1.8,3.1-3.4c0-2-1.3-3.5-3.4-3.5c-0.4,0-0.7,0-0.9,0L30.6,9.6L30.6,9.6z"/>
	<path class="st2" d="M36.4,10.6h0.2c0.3,0,0.5,0,0.5-0.4v-3c0-0.5-0.2-0.5-0.6-0.8V6.3c0.5-0.2,1.1-0.4,1.2-0.4
		c0.1,0,0.1-0.1,0.2-0.1C38,5.9,38,5.9,38,6v4.2c0,0.4,0.2,0.4,0.5,0.4h0.2v0.3c-0.4,0-0.8,0-1.1,0c-0.4,0-0.8,0-1.2,0L36.4,10.6
		L36.4,10.6z M37.6,4.2L37.6,4.2c-0.3,0-0.5-0.3-0.5-0.5c0-0.3,0.3-0.5,0.5-0.5c0.3,0,0.5,0.2,0.5,0.5C38.1,3.9,37.9,4.2,37.6,4.2z"
		/>
	<path class="st2" d="M39.8,7.3c0-0.4-0.1-0.5-0.6-0.7V6.4c0.5-0.2,0.9-0.3,1.4-0.5c0,0,0.1,0,0.1,0.1v0.7c0.6-0.4,1.2-0.8,1.9-0.8
		c0.9,0,1.3,0.7,1.3,1.5v2.8c0,0.4,0.2,0.4,0.5,0.4h0.2v0.3c-0.4,0-0.8,0-1.2,0c-0.4,0-0.8,0-1.2,0v-0.3h0.2c0.3,0,0.5,0,0.5-0.4
		V7.4c0-0.6-0.4-0.9-1-0.9c-0.3,0-0.9,0.3-1.3,0.5v3.2c0,0.4,0.2,0.4,0.5,0.4h0.2v0.3c-0.4,0-0.8,0-1.2,0c-0.4,0-0.8,0-1.2,0v-0.3
		h0.2c0.3,0,0.5,0,0.5-0.4L39.8,7.3L39.8,7.3z"/>
	<path class="st2" d="M45.4,7.9c0,0.1,0,0.3,0,0.6c0.1,1,0.7,1.9,1.6,1.9c0.6,0,1.1-0.3,1.5-0.7l0.2,0.2c-0.5,0.7-1.1,1.2-2,1.2
		c-1.7,0-2.1-1.7-2.1-2.4c0-2.1,1.4-2.8,2.2-2.8c0.9,0,1.8,0.6,1.8,1.7c0,0.1,0,0.1,0,0.2l-0.1,0.1H45.4L45.4,7.9z M47.3,7.5
		L47.3,7.5c0.3,0,0.3-0.1,0.3-0.3c0-0.6-0.3-1-0.9-1c-0.7,0-1.1,0.5-1.3,1.3H47.3L47.3,7.5z"/>
	<path class="st2" d="M48.8,10.6h0.3c0.3,0,0.5,0,0.5-0.4V7.2c0-0.3-0.4-0.4-0.6-0.5V6.5c0.8-0.3,1.2-0.6,1.3-0.6
		c0.1,0,0.1,0,0.1,0.1v1h0c0.3-0.4,0.7-1.1,1.4-1.1c0.3,0,0.6,0.2,0.6,0.6C52.5,6.7,52.3,7,52,7c-0.3,0-0.3-0.3-0.7-0.3
		c-0.2,0-0.8,0.3-0.8,0.9v2.6c0,0.4,0.2,0.4,0.5,0.4h0.6v0.3c-0.6,0-1.1,0-1.5,0c-0.4,0-0.9,0-1.3,0L48.8,10.6L48.8,10.6z"/>
	<path class="st2" d="M53,9.3c0.1,0.7,0.6,1.3,1.4,1.3c0.6,0,0.9-0.4,0.9-0.8c0-1.3-2.4-0.9-2.4-2.6c0-0.6,0.5-1.4,1.7-1.4
		c0.3,0,0.8,0.1,1.2,0.3l0.1,1.1h-0.3c-0.1-0.7-0.5-1.1-1.2-1.1c-0.4,0-0.8,0.3-0.8,0.7c0,1.3,2.5,0.9,2.5,2.6
		c0,0.7-0.6,1.5-1.9,1.5c-0.4,0-0.9-0.2-1.3-0.4l-0.1-1.3L53,9.3L53,9.3z"/>
	<path class="st2" d="M65.9,5.2h-0.3c-0.2-1.3-1.1-1.8-2.3-1.8c-1.3,0-3.1,0.8-3.1,3.5c0,2.2,1.6,3.8,3.2,3.8c1.1,0,2-0.7,2.2-1.9
		L66,8.9l-0.3,1.6C65.2,10.7,64,11,63.3,11c-2.6,0-4.2-1.6-4.2-4.1c0-2.2,2-3.8,4.1-3.8c0.9,0,1.7,0.3,2.6,0.6L65.9,5.2L65.9,5.2z"
		/>
	<path class="st2" d="M66.3,10.6h0.2c0.3,0,0.5,0,0.5-0.4V4.1c0-0.7-0.2-0.7-0.6-0.9V3.1c0.4-0.1,0.9-0.3,1.1-0.5
		c0.1-0.1,0.2-0.1,0.2-0.1c0.1,0,0.1,0.1,0.1,0.2v7.5c0,0.4,0.2,0.4,0.5,0.4h0.2v0.3c-0.4,0-0.8,0-1.1,0c-0.4,0-0.8,0-1.2,0
		L66.3,10.6L66.3,10.6z"/>
	<path class="st2" d="M73.3,10.3c0,0.2,0.1,0.2,0.3,0.2c0.1,0,0.3,0,0.4,0v0.2c-0.5,0-1.4,0.3-1.6,0.3l-0.1,0v-0.9
		c-0.7,0.5-1.2,0.9-1.9,0.9c-0.6,0-1.2-0.4-1.2-1.3V6.9c0-0.3,0-0.6-0.7-0.6V6.1c0.4,0,1.3-0.1,1.4-0.1c0.1,0,0.1,0.1,0.1,0.3v2.8
		c0,0.3,0,1.3,0.9,1.3c0.4,0,0.9-0.3,1.3-0.7V6.8c0-0.2-0.5-0.3-0.9-0.4V6.2c1-0.1,1.6-0.2,1.7-0.2c0.1,0,0.1,0.1,0.1,0.2L73.3,10.3
		L73.3,10.3z"/>
	<path class="st2" d="M75.5,6.7c0.4-0.4,1-0.8,1.6-0.8c1.3,0,2,1.1,2,2.3c0,1.4-1,2.9-2.6,2.9c-0.8,0-1.2-0.3-1.5-0.4l-0.3,0.3
		l-0.2-0.1c0.1-0.6,0.2-1.3,0.2-1.9V4.1c0-0.7-0.2-0.7-0.6-0.9V3.1c0.4-0.1,0.9-0.3,1.1-0.5c0.1-0.1,0.2-0.1,0.2-0.1
		c0.1,0,0.1,0.1,0.1,0.2L75.5,6.7L75.5,6.7L75.5,6.7z M75.5,9.6L75.5,9.6c0,0.4,0.4,1.1,1.1,1.1c1.2,0,1.7-1.1,1.7-2.1
		c0-1.2-0.9-2.2-1.7-2.2c-0.4,0-0.7,0.3-1,0.5L75.5,9.6L75.5,9.6z"/>
	<path class="st2" d="M28.5,17.2L28.5,17.2c0.3,0,0.5,0,0.5-0.3v-3.1c0-0.3-0.2-0.3-0.4-0.3h-0.1v-0.2c0.2,0,0.6,0,0.9,0
		c0.3,0,0.7,0,0.9,0v0.2h-0.1c-0.2,0-0.4,0-0.4,0.3v3.1c0,0.3,0.2,0.3,0.4,0.3h0.1v0.2c-0.3,0-0.6,0-0.9,0c-0.3,0-0.6,0-0.9,0
		L28.5,17.2L28.5,17.2z"/>
	<path class="st2" d="M30.3,17.4c-0.3,0-0.6,0-0.9,0c-0.3,0-0.6,0-0.9,0h0v0v-0.2v0h0h0.1c0.2,0,0.4,0,0.4-0.3v-3.1
		c0-0.3-0.2-0.3-0.4-0.3h-0.1v0v-0.2h0c0.2,0,0.6,0,0.9,0c0.3,0,0.7,0,0.9,0h0v0v0.2h0h-0.1c-0.2,0-0.4,0-0.4,0.3v3.1
		c0,0.3,0.2,0.3,0.4,0.3h0.1v0L30.3,17.4L30.3,17.4L30.3,17.4z M30.3,17.4L30.3,17.4v-0.1h-0.1c-0.2,0-0.5,0-0.5-0.4v-3.1
		c0-0.3,0.3-0.4,0.5-0.4h0.1v-0.1c-0.3,0-0.6,0-0.9,0c-0.3,0-0.6,0-0.9,0v0.1h0.1c0.2,0,0.5,0,0.5,0.4v3.1c0,0.3-0.3,0.4-0.5,0.4
		h-0.1v0.1c0.2,0,0.6,0,0.8,0C29.6,17.3,30,17.4,30.3,17.4L30.3,17.4z"/>
	<path class="st2" d="M34.4,16.2L34.4,16.2l0-2.2c0-0.5-0.3-0.6-0.5-0.6h-0.1v-0.2c0.3,0,0.6,0,0.8,0c0.2,0,0.5,0,0.7,0v0.2h-0.1
		c-0.2,0-0.5,0-0.5,0.8v2.7c0,0.2,0,0.4,0,0.6h-0.2l-3.1-3.4v2.4c0,0.5,0.1,0.7,0.6,0.7h0.1v0.2c-0.3,0-0.5,0-0.8,0
		c-0.3,0-0.5,0-0.8,0v-0.2h0.1c0.4,0,0.5-0.3,0.5-0.8v-2.5c0-0.3-0.3-0.5-0.5-0.5h-0.1v-0.2c0.2,0,0.5,0,0.7,0c0.2,0,0.4,0,0.5,0
		L34.4,16.2L34.4,16.2z"/>
	<path class="st2" d="M34.7,17.5l-0.2,0l-3-3.4v2.4c0,0.5,0.1,0.7,0.5,0.7h0.1v0v0.2h0c-0.3,0-0.5,0-0.8,0c-0.3,0-0.5,0-0.8,0h0v0
		v-0.2h0h0.1c0.4,0,0.5-0.3,0.5-0.7v-2.5c0-0.3-0.3-0.5-0.5-0.5h-0.1v0v-0.2h0c0.2,0,0.5,0,0.7,0c0.2,0,0.3,0,0.5,0l2.6,2.9V14
		c0-0.5-0.3-0.5-0.5-0.5h-0.2v0v-0.2h0c0.3,0,0.6,0,0.8,0c0.2,0,0.5,0,0.7,0h0v0v0.2h0h-0.1c-0.2,0-0.5,0-0.5,0.7v2.7
		C34.7,17.1,34.7,17.3,34.7,17.5L34.7,17.5L34.7,17.5L34.7,17.5z M34.5,17.4L34.5,17.4h0.2c0-0.2,0-0.4,0-0.6v-2.7
		c0-0.7,0.3-0.8,0.6-0.8h0.1v-0.1c-0.2,0-0.5,0-0.7,0c-0.3,0-0.5,0-0.8,0l0,0.1h0.1c0.2,0,0.5,0.1,0.5,0.6l0,2.2l0,0l0,0l-2.6-3
		c-0.2,0-0.3,0-0.5,0c-0.2,0-0.4,0-0.7,0l0,0.1h0.1c0.3,0,0.6,0.2,0.6,0.6v2.5c0,0.5-0.1,0.8-0.6,0.8l-0.1,0v0.1c0.3,0,0.5,0,0.8,0
		c0.2,0,0.5,0,0.7,0v-0.1H32c-0.5,0-0.6-0.2-0.6-0.7V14L34.5,17.4L34.5,17.4z M34.4,16.2L34.4,16.2L34.4,16.2L34.4,16.2z M34.3,16.2
		L34.3,16.2L34.3,16.2L34.3,16.2L34.3,16.2z"/>
	<path class="st2" d="M36.2,13.5c-0.4,0-0.5,0.1-0.6,0.5h-0.2c0-0.2,0.1-0.3,0.1-0.5c0-0.2,0-0.3,0-0.5h0.1c0,0.2,0.2,0.2,0.4,0.2
		h3.1c0.2,0,0.3,0,0.3-0.2l0.1,0c0,0.2,0,0.3-0.1,0.5c0,0.2,0,0.3,0,0.5l-0.2,0.1c0-0.2,0-0.6-0.4-0.6h-1v3.2c0,0.5,0.2,0.5,0.5,0.5
		h0.1v0.2c-0.2,0-0.6,0-1,0c-0.4,0-0.8,0-1,0v-0.2h0.1c0.3,0,0.5,0,0.5-0.5v-3.2L36.2,13.5L36.2,13.5z"/>
	<path class="st2" d="M38.5,17.4c-0.2,0-0.6,0-1,0c-0.4,0-0.8,0-1,0h0v0v-0.2h0h0.1c0.3,0,0.5,0,0.5-0.5v-3.1h-0.9v0v0h1v3.2
		c0,0.5-0.2,0.5-0.5,0.5h-0.1v0.1c0.2,0,0.6,0,1,0C37.9,17.3,38.2,17.3,38.5,17.4l0-0.2h-0.1c-0.3,0-0.5-0.1-0.5-0.5v-3.2h1
		c0.4,0,0.4,0.3,0.5,0.6l0.1,0c0-0.2,0-0.3,0-0.5c0-0.2,0-0.3,0.1-0.5l-0.1,0c0,0.2-0.2,0.2-0.3,0.2H36h0c-0.1,0-0.3,0-0.3-0.2h-0.1
		c0,0.2,0,0.3,0,0.5c0,0.2,0,0.3-0.1,0.5h0.1c0.1-0.4,0.1-0.5,0.6-0.5v0v0c-0.4,0-0.4,0.1-0.5,0.5l0,0h0h-0.2l0,0
		c0-0.2,0.1-0.3,0.1-0.5c0-0.2,0-0.3,0-0.5v0h0h0.2l0,0c0,0.1,0.2,0.2,0.3,0.2h0h3.1c0.2,0,0.3,0,0.3-0.2l0,0l0,0l0.2,0l0,0
		c0,0.2,0,0.3-0.1,0.5c0,0.2,0,0.3,0,0.5v0l0,0l-0.2,0.1l0,0c0-0.2,0-0.5-0.4-0.5h-0.9v3.1c0,0.4,0.2,0.5,0.5,0.5h0.1v0L38.5,17.4
		L38.5,17.4L38.5,17.4z"/>
	<path class="st2" d="M39.8,17.2L39.8,17.2c0.3,0,0.5,0,0.5-0.3v-3.1c0-0.3-0.2-0.3-0.4-0.3h-0.1v-0.2c0.4,0,1,0,1.5,0
		c0.5,0,1.1,0,1.5,0c0,0.3,0,0.6,0,0.9l-0.2,0c0-0.4-0.1-0.7-0.7-0.7H41v1.6h0.7c0.4,0,0.4-0.2,0.5-0.5h0.2c0,0.2,0,0.5,0,0.7
		c0,0.2,0,0.5,0,0.7l-0.2,0c0-0.4-0.1-0.6-0.5-0.6H41v1.4c0,0.4,0.3,0.4,0.7,0.4c0.7,0,1,0,1.2-0.7l0.2,0c-0.1,0.3-0.1,0.6-0.2,0.9
		c-0.4,0-1.1,0-1.6,0c-0.5,0-1.2,0-1.6,0L39.8,17.2L39.8,17.2z"/>
	<path class="st2" d="M42.9,17.4c-0.4,0-1.1,0-1.6,0c-0.5,0-1.2,0-1.6,0h0v0v-0.2v0h0h0.1c0.2,0,0.4,0,0.4-0.3v-3.1
		c0-0.3-0.2-0.3-0.4-0.3h-0.1v0v-0.2h0c0.4,0,1,0,1.5,0c0.5,0,1.1,0,1.5,0h0l0,0c0,0.1,0,0.2,0,0.3c0,0.2,0,0.4,0,0.6l0,0l0,0
		l-0.2,0.1l0,0c0-0.4-0.1-0.7-0.7-0.7h-0.8l0,1.5h0.7c0.3,0,0.4-0.2,0.4-0.5l0,0h0h0.2l0,0c0,0.2,0,0.5,0,0.7c0,0.2,0,0.4,0,0.7l0,0
		l0,0l-0.2,0l0,0c0-0.4,0-0.6-0.4-0.6l-0.7,0v1.4c0,0.4,0.3,0.4,0.7,0.4c0.7,0,1,0,1.2-0.7l0,0l0,0l0.2,0l0,0
		C43.1,16.8,43,17.1,42.9,17.4L42.9,17.4L42.9,17.4L42.9,17.4z M42.9,17.4L42.9,17.4c0.1-0.3,0.1-0.6,0.2-0.9l-0.1,0
		c-0.2,0.7-0.5,0.7-1.2,0.7c-0.4,0-0.7,0-0.7-0.4v-1.4h0.7c0.4,0,0.5,0.2,0.5,0.6l0.1,0c0-0.2,0-0.4,0-0.7c0-0.2,0-0.4,0-0.7h-0.1
		c0,0.3-0.1,0.5-0.5,0.5H41v-1.6h0.9c0.6,0,0.7,0.3,0.7,0.7l0.1,0c0-0.2,0-0.4,0-0.6c0-0.1,0-0.2,0-0.3c-0.4,0-1,0-1.5,0
		c-0.5,0-1.1,0-1.5,0v0.1h0.1c0.2,0,0.5,0,0.5,0.4v3.1c0,0.3-0.3,0.4-0.5,0.4h-0.1v0.1c0.3,0,1,0,1.6,0
		C41.9,17.3,42.5,17.4,42.9,17.4L42.9,17.4z"/>
	<path class="st2" d="M43.9,13.9c0-0.4-0.2-0.5-0.4-0.5h-0.1v-0.2c0.2,0,0.6,0,0.9,0c0.4,0,0.6,0,1,0c0.7,0,1.4,0.2,1.4,1
		c0,0.5-0.4,0.9-0.8,1l1,1.5c0.2,0.3,0.3,0.3,0.6,0.4v0.2c-0.2,0-0.4,0-0.6,0c-0.2,0-0.4,0-0.6,0c-0.5-0.6-0.8-1.2-1.2-1.9h-0.4v1.3
		c0,0.5,0.2,0.5,0.5,0.5h0.1v0.2c-0.3,0-0.7,0-1,0c-0.3,0-0.6,0-0.9,0v-0.2h0.1c0.2,0,0.4-0.1,0.4-0.3L43.9,13.9L43.9,13.9z
		 M44.7,15.2L44.7,15.2H45c0.6,0,0.9-0.2,0.9-0.9c0-0.5-0.3-0.9-0.9-0.9c-0.2,0-0.3,0-0.3,0L44.7,15.2L44.7,15.2z"/>
	<path class="st2" d="M47.5,17.4c-0.2,0-0.4,0-0.6,0c-0.2,0-0.4,0-0.6,0c-0.5-0.6-0.8-1.2-1.2-1.9h-0.4v1.2c0,0.4,0.2,0.4,0.5,0.4
		h0.1v0v0.2h0c-0.3,0-0.7,0-1,0c-0.3,0-0.6,0-0.9,0h0v0v-0.2h0h0.1c0.2,0,0.4-0.1,0.4-0.3v-3c0-0.4-0.2-0.4-0.4-0.4h-0.1v0v-0.2h0
		c0.2,0,0.6,0,0.9,0c0.4,0,0.6,0,1,0c0.7,0,1.4,0.2,1.4,1.1c0,0.5-0.4,0.9-0.8,1.1l1,1.5c0.2,0.2,0.3,0.3,0.6,0.3l0,0v0L47.5,17.4
		L47.5,17.4L47.5,17.4z M44.7,15.4L44.7,15.4h0.4l0,0c0.4,0.7,0.8,1.3,1.2,1.9c0.2,0,0.4,0,0.6,0c0.2,0,0.4,0,0.6,0v-0.1
		c-0.3,0-0.4-0.1-0.6-0.4l-1-1.5l0,0c0.5-0.2,0.8-0.5,0.8-1c0-0.8-0.6-1-1.4-1c-0.3,0-0.6,0-1,0c-0.3,0-0.7,0-0.9,0v0.1h0.1
		c0.2,0,0.4,0,0.4,0.5v3c0,0.2-0.2,0.3-0.4,0.3h-0.1v0.1c0.3,0,0.6,0,0.8,0c0.3,0,0.7,0,1,0v-0.1h-0.1c-0.3,0-0.5,0-0.5-0.5
		L44.7,15.4L44.7,15.4L44.7,15.4z M44.7,15.3L44.7,15.3L44.7,15.3l0-1.8l0,0c0.1,0,0.2,0,0.3,0c0.5,0,0.9,0.4,0.9,0.9
		c0,0.7-0.3,0.9-0.9,0.9L44.7,15.3L44.7,15.3z M45,15.2L45,15.2c0.6,0,0.9-0.2,0.9-0.9c0-0.5-0.3-0.8-0.8-0.8c-0.2,0-0.2,0-0.3,0
		v1.7H45L45,15.2z"/>
	<path class="st2" d="M51.5,16.2L51.5,16.2l0-2.2c0-0.5-0.3-0.6-0.5-0.6h-0.1v-0.2c0.3,0,0.6,0,0.8,0c0.2,0,0.5,0,0.7,0v0.2h-0.1
		c-0.2,0-0.5,0-0.5,0.8v2.7c0,0.2,0,0.4,0,0.6h-0.2l-3.1-3.4v2.4c0,0.5,0.1,0.7,0.6,0.7h0.1v0.2c-0.3,0-0.5,0-0.8,0
		c-0.3,0-0.5,0-0.8,0v-0.2h0.1c0.4,0,0.5-0.3,0.5-0.8v-2.5c0-0.3-0.3-0.5-0.5-0.5h-0.1v-0.2c0.2,0,0.5,0,0.7,0c0.2,0,0.3,0,0.5,0
		L51.5,16.2L51.5,16.2z"/>
	<path class="st2" d="M51.8,17.5l-0.2,0l-3-3.4v2.4c0,0.5,0.1,0.7,0.5,0.7h0.1v0v0.2h0c-0.3,0-0.5,0-0.8,0c-0.3,0-0.5,0-0.8,0h0v0
		v-0.2h0h0.1c0.4,0,0.5-0.3,0.5-0.7v-2.5c0-0.3-0.3-0.5-0.5-0.5h-0.1v0v-0.2h0c0.2,0,0.5,0,0.7,0c0.2,0,0.3,0,0.5,0l2.6,2.9V14
		c0-0.5-0.3-0.5-0.5-0.5h-0.2v0v-0.2h0c0.3,0,0.6,0,0.8,0c0.2,0,0.5,0,0.7,0h0v0v0.2h0h-0.1c-0.2,0-0.5,0-0.5,0.7v2.7
		C51.8,17.1,51.8,17.3,51.8,17.5L51.8,17.5L51.8,17.5L51.8,17.5z M51.6,17.4L51.6,17.4h0.2c0-0.2,0-0.4,0-0.6v-2.7
		c0-0.7,0.3-0.8,0.6-0.8h0.1v-0.1c-0.2,0-0.5,0-0.7,0c-0.3,0-0.5,0-0.8,0v0.1H51c0.2,0,0.5,0.1,0.5,0.6l0,2.2l0,0l0,0l-2.6-3
		c-0.2,0-0.3,0-0.5,0c-0.2,0-0.4,0-0.7,0v0.1h0.1c0.3,0,0.6,0.2,0.6,0.6v2.5c0,0.5-0.1,0.8-0.6,0.8l-0.1,0v0.1c0.3,0,0.5,0,0.8,0
		c0.2,0,0.5,0,0.7,0v-0.1h-0.1c-0.5,0-0.6-0.2-0.6-0.7V14L51.6,17.4L51.6,17.4z M51.5,16.2L51.5,16.2L51.5,16.2L51.5,16.2z
		 M51.5,16.2L51.5,16.2L51.5,16.2L51.5,16.2L51.5,16.2z"/>
	<path class="st2" d="M53.4,16.5c-0.1,0.2-0.1,0.4-0.1,0.5c0,0.2,0.2,0.2,0.4,0.2h0.1v0.2c-0.2,0-0.5,0-0.7,0c-0.2,0-0.4,0-0.6,0
		v-0.2h0c0.2,0,0.4-0.1,0.5-0.4l1-2.7c0.1-0.2,0.2-0.5,0.2-0.7c0.2-0.1,0.4-0.2,0.5-0.3c0,0,0,0,0,0c0,0,0,0,0,0c0,0,0,0.1,0.1,0.1
		l1.1,3.1c0.1,0.2,0.1,0.4,0.2,0.6c0.1,0.2,0.2,0.2,0.4,0.2h0v0.2c-0.3,0-0.5,0-0.8,0c-0.3,0-0.6,0-0.9,0v-0.2h0.1
		c0.1,0,0.4,0,0.4-0.2c0-0.1-0.1-0.2-0.1-0.4l-0.2-0.7h-1.3L53.4,16.5L53.4,16.5z M54.2,13.9L54.2,13.9L54.2,13.9l-0.6,1.7h1.1
		L54.2,13.9z"/>
	<path class="st2" d="M56.5,17.4c-0.3,0-0.5,0-0.8,0c-0.3,0-0.6,0-0.9,0l0,0v0v-0.2h0h0.1c0.1,0,0.3,0,0.3-0.1
		c0-0.1-0.1-0.2-0.1-0.4l-0.2-0.7h-1.3l-0.2,0.6c-0.1,0.2-0.1,0.4-0.1,0.5c0,0.1,0.2,0.2,0.4,0.2h0.1v0v0.2l0,0c-0.2,0-0.5,0-0.7,0
		c-0.2,0-0.4,0-0.6,0l0,0v0v-0.2h0h0c0.2,0,0.4-0.1,0.5-0.4l0.9-2.7c0.1-0.2,0.2-0.5,0.2-0.8c0.2-0.1,0.4-0.2,0.5-0.3c0,0,0,0,0.1,0
		c0,0,0,0,0.1,0c0,0,0,0.1,0.1,0.1l1.1,3.1c0.1,0.2,0.1,0.4,0.2,0.6c0.1,0.2,0.2,0.2,0.4,0.2h0.1v0L56.5,17.4L56.5,17.4L56.5,17.4z
		 M54.8,17.3L54.8,17.3c0.3,0,0.6,0,0.9,0c0.3,0,0.5,0,0.8,0v-0.1h0c-0.2,0-0.3-0.1-0.4-0.3c-0.1-0.2-0.1-0.4-0.2-0.6l-1.1-3.1
		c0,0,0-0.1-0.1-0.1c0,0,0,0,0,0h0c0,0,0,0,0,0c-0.1,0.1-0.4,0.2-0.5,0.2c0,0.2-0.1,0.5-0.2,0.7L53,16.8c-0.1,0.3-0.3,0.4-0.5,0.4h0
		v0.1c0.2,0,0.4,0,0.6,0c0.2,0,0.5,0,0.7,0v-0.1h0c-0.2,0-0.5,0-0.5-0.2c0-0.1,0.1-0.3,0.1-0.5l0,0l0,0l0.2-0.6h1.4l0.2,0.7
		c0.1,0.2,0.1,0.3,0.1,0.4c0,0.2-0.3,0.2-0.4,0.2h0L54.8,17.3L54.8,17.3z M53.6,15.6L53.6,15.6l0.6-1.7h0h0v0l0,0l0,0v0h0l0.6,1.7
		H53.6z M53.7,15.6L53.7,15.6h1L54.2,14L53.7,15.6z M54.2,13.9L54.2,13.9L54.2,13.9L54.2,13.9z"/>
	<path class="st2" d="M56.8,13.5c-0.4,0-0.5,0.1-0.6,0.5h-0.2c0-0.2,0.1-0.3,0.1-0.5c0-0.2,0-0.3,0-0.5h0.1c0,0.2,0.2,0.2,0.4,0.2
		h3.1c0.2,0,0.3,0,0.3-0.2l0.1,0c0,0.2,0,0.3-0.1,0.5c0,0.2,0,0.3,0,0.5l-0.2,0.1c0-0.2,0-0.6-0.4-0.6h-1v3.2c0,0.5,0.2,0.5,0.5,0.5
		h0.1v0.2c-0.2,0-0.6,0-1,0c-0.4,0-0.8,0-1,0v-0.2h0.1c0.3,0,0.5,0,0.5-0.5v-3.2L56.8,13.5L56.8,13.5z"/>
	<path class="st2" d="M59.1,17.4c-0.2,0-0.6,0-1,0c-0.4,0-0.8,0-1,0h0v0v-0.2h0h0.1c0.3,0,0.5,0,0.5-0.5l0-3.1h-0.9v0v0h1v3.2
		c0,0.5-0.2,0.5-0.5,0.5h-0.1v0.1c0.2,0,0.6,0,1,0C58.5,17.3,58.9,17.3,59.1,17.4l0-0.2H59c-0.3,0-0.5-0.1-0.5-0.5v-3.2h1
		c0.4,0,0.5,0.3,0.5,0.6l0.1,0c0-0.2,0-0.3,0-0.5c0-0.2,0-0.3,0.1-0.5l-0.1,0c0,0.2-0.2,0.2-0.3,0.2h-3.1h0c-0.1,0-0.3,0-0.3-0.2
		h-0.1c0,0.2,0,0.3,0,0.5c0,0.2,0,0.3-0.1,0.5h0.1c0.1-0.4,0.1-0.5,0.6-0.5v0v0c-0.4,0-0.4,0.1-0.5,0.5l0,0h0H56l0,0
		c0-0.2,0.1-0.3,0.1-0.5c0-0.2,0-0.3,0-0.5v0h0h0.2l0,0c0,0.1,0.1,0.2,0.3,0.2l0,0h3.1c0.2,0,0.3,0,0.3-0.2l0,0l0,0l0.2,0l0,0
		c0,0.2,0,0.3-0.1,0.5c0,0.2,0,0.3,0,0.5v0l0,0l-0.2,0.1l0,0c0-0.2,0-0.5-0.4-0.5h-0.9v3.1c0,0.4,0.2,0.5,0.5,0.5h0.1v0L59.1,17.4
		L59.1,17.4L59.1,17.4z"/>
	<path class="st2" d="M60.4,17.2L60.4,17.2c0.3,0,0.5,0,0.5-0.3v-3.1c0-0.3-0.2-0.3-0.4-0.3h-0.1v-0.2c0.2,0,0.6,0,0.9,0
		c0.3,0,0.7,0,0.9,0v0.2h-0.1c-0.2,0-0.4,0-0.4,0.3v3.1c0,0.3,0.2,0.3,0.4,0.3h0.1v0.2c-0.3,0-0.6,0-0.9,0c-0.3,0-0.6,0-0.9,0
		L60.4,17.2L60.4,17.2z"/>
	<path class="st2" d="M62.2,17.4c-0.3,0-0.6,0-0.9,0c-0.3,0-0.6,0-0.9,0h0v0v-0.2v0h0h0.1c0.2,0,0.4,0,0.4-0.3v-3.1
		c0-0.3-0.2-0.3-0.4-0.3h-0.1v0v-0.2h0c0.2,0,0.6,0,0.9,0c0.3,0,0.7,0,0.9,0h0v0v0.2h0h-0.1c-0.2,0-0.4,0-0.4,0.3v3.1
		c0,0.3,0.2,0.3,0.4,0.3h0.1v0L62.2,17.4L62.2,17.4L62.2,17.4z M62.2,17.4L62.2,17.4v-0.1h-0.1c-0.2,0-0.5,0-0.5-0.4v-3.1
		c0-0.3,0.3-0.4,0.5-0.4h0.1v-0.1c-0.3,0-0.6,0-0.9,0c-0.3,0-0.6,0-0.9,0v0.1h0.1c0.2,0,0.5,0,0.5,0.4v3.1c0,0.3-0.3,0.4-0.5,0.4
		h-0.1v0.1c0.2,0,0.6,0,0.8,0C61.6,17.3,61.9,17.3,62.2,17.4L62.2,17.4z"/>
	<path class="st2" d="M64.6,13.1c1.3,0,2.3,0.8,2.3,2c0,1.4-1,2.3-2.2,2.3c-1.3,0-2.2-0.9-2.2-2.1C62.4,14.1,63.3,13.1,64.6,13.1
		L64.6,13.1z M64.7,17.2L64.7,17.2c1.2,0,1.4-1,1.4-1.9c0-0.9-0.5-1.9-1.5-1.9c-1,0-1.3,0.9-1.3,1.7C63.2,16.2,63.7,17.2,64.7,17.2
		L64.7,17.2z"/>
	<path class="st2" d="M62.4,15.3c0-1.2,1-2.2,2.2-2.2v0v0C63.4,13.2,62.4,14.1,62.4,15.3c0.1,1.3,1,2.1,2.2,2.1
		c1.3,0,2.2-0.9,2.2-2.2c0-1.2-1-2-2.2-2v0v0c1.3,0,2.3,0.8,2.3,2.1c0,1.4-1,2.3-2.3,2.3C63.3,17.5,62.4,16.6,62.4,15.3L62.4,15.3
		L62.4,15.3z M63.2,15.1L63.2,15.1c0-0.8,0.3-1.7,1.4-1.7c1,0,1.5,1.1,1.5,1.9c0,0.9-0.2,1.9-1.4,1.9v0v0c1.1,0,1.3-1,1.3-1.9
		c0-0.9-0.5-1.9-1.4-1.9C63.6,13.4,63.2,14.3,63.2,15.1c0.1,1.1,0.5,2,1.5,2.1v0v0C63.7,17.2,63.2,16.2,63.2,15.1L63.2,15.1z"/>
	<path class="st2" d="M70.8,16.2L70.8,16.2l0-2.2c0-0.5-0.3-0.6-0.5-0.6h-0.1v-0.2c0.3,0,0.6,0,0.8,0c0.2,0,0.5,0,0.7,0v0.2h-0.1
		c-0.2,0-0.5,0-0.5,0.8v2.7c0,0.2,0,0.4,0,0.6H71l-3.1-3.4v2.4c0,0.5,0.1,0.7,0.6,0.7h0.1v0.2c-0.3,0-0.5,0-0.8,0
		c-0.3,0-0.5,0-0.8,0v-0.2h0.1c0.4,0,0.5-0.3,0.5-0.8v-2.5c0-0.3-0.3-0.5-0.5-0.5H67v-0.2c0.2,0,0.5,0,0.7,0c0.2,0,0.3,0,0.5,0
		L70.8,16.2L70.8,16.2z"/>
	<path class="st2" d="M71.2,17.5l-0.2,0l-3-3.4v2.4c0,0.5,0.1,0.7,0.5,0.7h0.1v0v0.2h0c-0.3,0-0.5,0-0.8,0c-0.3,0-0.5,0-0.8,0h0v0
		v-0.2h0h0.1c0.4,0,0.5-0.3,0.5-0.7v-2.5c0-0.3-0.3-0.5-0.5-0.5H67v0v-0.2h0c0.2,0,0.5,0,0.7,0c0.2,0,0.3,0,0.5,0l2.6,2.9V14
		c0-0.5-0.3-0.5-0.5-0.5h-0.2v0v-0.2h0c0.3,0,0.6,0,0.8,0c0.2,0,0.5,0,0.7,0h0v0v0.2h0h-0.1c-0.2,0-0.5,0-0.5,0.7v2.7
		C71.2,17.1,71.2,17.3,71.2,17.5L71.2,17.5L71.2,17.5L71.2,17.5z M71,17.4L71,17.4h0.2c0-0.2,0-0.4,0-0.6v-2.7
		c0-0.7,0.3-0.8,0.6-0.8h0.1v-0.1c-0.2,0-0.5,0-0.7,0c-0.3,0-0.5,0-0.8,0v0.1h0.1c0.2,0,0.5,0.1,0.5,0.6l0,2.2l0,0l0,0l-2.6-3
		c-0.2,0-0.3,0-0.5,0c-0.2,0-0.4,0-0.7,0v0.1h0.1c0.3,0,0.6,0.2,0.6,0.6v2.5c0,0.5-0.1,0.8-0.6,0.8l-0.1,0v0.1c0.3,0,0.5,0,0.8,0
		c0.2,0,0.5,0,0.7,0v-0.1h-0.1c-0.5,0-0.6-0.2-0.6-0.7V14L71,17.4L71,17.4z M70.8,16.2L70.8,16.2L70.8,16.2L70.8,16.2z M70.8,16.2
		L70.8,16.2L70.8,16.2L70.8,16.2L70.8,16.2z"/>
	<path class="st2" d="M72.7,16.5c-0.1,0.2-0.1,0.4-0.1,0.5c0,0.2,0.2,0.2,0.4,0.2h0.1v0.2c-0.2,0-0.5,0-0.7,0c-0.2,0-0.4,0-0.6,0
		v-0.2h0c0.2,0,0.4-0.1,0.5-0.4l1-2.7c0.1-0.2,0.2-0.5,0.2-0.7c0.2-0.1,0.4-0.2,0.5-0.3c0,0,0,0,0,0c0,0,0,0,0,0c0,0,0,0.1,0.1,0.1
		l1.1,3.1c0.1,0.2,0.1,0.4,0.2,0.6c0.1,0.2,0.2,0.2,0.4,0.2h0v0.2c-0.3,0-0.5,0-0.8,0c-0.3,0-0.6,0-0.9,0v-0.2h0.1
		c0.1,0,0.4,0,0.4-0.2c0-0.1-0.1-0.2-0.1-0.4l-0.2-0.7h-1.3L72.7,16.5L72.7,16.5z M73.6,13.9L73.6,13.9L73.6,13.9L73,15.6h1.1
		L73.6,13.9z"/>
	<path class="st2" d="M75.9,17.4c-0.3,0-0.5,0-0.8,0c-0.3,0-0.6,0-0.9,0l0,0v0v-0.2h0h0.1c0.1,0,0.3,0,0.3-0.1
		c0-0.1-0.1-0.2-0.1-0.4l-0.2-0.7h-1.3l-0.2,0.6c-0.1,0.2-0.1,0.4-0.1,0.5c0,0.1,0.2,0.2,0.4,0.2h0.1v0v0.2l0,0c-0.2,0-0.5,0-0.7,0
		c-0.2,0-0.4,0-0.6,0l0,0v0v-0.2h0h0c0.2,0,0.4-0.1,0.5-0.4l0.9-2.7c0.1-0.2,0.2-0.5,0.2-0.8c0.2-0.1,0.4-0.2,0.5-0.3c0,0,0,0,0.1,0
		c0,0,0,0,0.1,0c0,0,0,0.1,0.1,0.1l1.1,3.1c0.1,0.2,0.1,0.4,0.2,0.6c0.1,0.2,0.2,0.2,0.4,0.2h0.1v0L75.9,17.4L75.9,17.4L75.9,17.4z
		 M74.2,17.4L74.2,17.4c0.3,0,0.6,0,0.9,0c0.3,0,0.5,0,0.8,0l0-0.1h0c-0.2,0-0.3-0.1-0.4-0.3c-0.1-0.2-0.1-0.4-0.2-0.6l-1.1-3.1
		c0,0,0-0.1-0.1-0.1c0,0,0,0,0,0h0c0,0,0,0,0,0c-0.1,0.1-0.4,0.2-0.5,0.2c0,0.2-0.1,0.5-0.2,0.7l-0.9,2.7c-0.1,0.3-0.3,0.4-0.5,0.4
		h0v0.1c0.2,0,0.4,0,0.6,0c0.2,0,0.5,0,0.7,0v-0.1h0c-0.2,0-0.5,0-0.5-0.2c0-0.1,0.1-0.3,0.1-0.5l0,0l0,0l0.2-0.6h1.4l0.2,0.7
		c0.1,0.2,0.1,0.3,0.1,0.4c0,0.2-0.3,0.2-0.4,0.2h0L74.2,17.4L74.2,17.4z M73,15.6L73,15.6l0.6-1.7h0h0v0l0,0l0,0v0h0l0.6,1.7H73z
		 M73.1,15.6L73.1,15.6h1L73.6,14L73.1,15.6L73.1,15.6z M73.6,13.9L73.6,13.9L73.6,13.9L73.6,13.9z"/>
	<path class="st2" d="M77.4,16.8c0,0.2,0.2,0.3,0.4,0.3c0.2,0,0.5,0,0.8,0c0.2,0,0.5-0.2,0.6-0.3c0.1-0.1,0.1-0.3,0.2-0.4h0.2
		c-0.1,0.3-0.1,0.7-0.2,1c-0.5,0-1,0-1.6,0c-0.5,0-1,0-1.6,0v-0.2h0.1c0.2,0,0.4,0,0.4-0.4v-3c0-0.3-0.2-0.3-0.4-0.3h-0.1v-0.2
		c0.3,0,0.6,0,0.9,0c0.3,0,0.6,0,0.9,0v0.2h-0.1c-0.2,0-0.4,0-0.4,0.3V16.8L77.4,16.8z"/>
	<path class="st2" d="M79.2,17.4c-0.5,0-1,0-1.6,0c-0.5,0-1,0-1.6,0h0v0v-0.2h0h0.1c0.2,0,0.4,0,0.4-0.4v-3c0-0.3-0.2-0.3-0.4-0.3
		h-0.1v0v-0.2h0c0.3,0,0.6,0,0.9,0c0.3,0,0.6,0,0.9,0h0v0v0.2h0h-0.1c-0.2,0-0.4,0-0.4,0.3v3.1c0,0.2,0.1,0.3,0.3,0.3
		c0.1,0,0.2,0,0.3,0c0.1,0,0.3,0,0.4,0c0.2,0,0.4-0.2,0.6-0.3c0.1-0.1,0.1-0.3,0.2-0.4l0,0h0h0.2l0,0C79.4,16.7,79.3,17,79.2,17.4
		L79.2,17.4L79.2,17.4L79.2,17.4L79.2,17.4z M79.2,17.4L79.2,17.4c0.1-0.3,0.1-0.6,0.2-1h-0.1c0,0.1-0.1,0.3-0.2,0.4
		c-0.1,0.2-0.3,0.3-0.6,0.3c-0.2,0-0.3,0-0.5,0c-0.1,0-0.2,0-0.3,0c-0.2,0-0.4-0.1-0.4-0.4v-3.1c0-0.3,0.2-0.3,0.4-0.3h0.1v-0.1
		c-0.3,0-0.6,0-0.9,0c-0.3,0-0.6,0-0.9,0v0.1h0.1c0.2,0,0.5,0,0.5,0.4v3c0,0.4-0.3,0.4-0.5,0.4h-0.1v0.1c0.5,0,1,0,1.5,0
		C78.2,17.3,78.7,17.4,79.2,17.4L79.2,17.4z"/>
	<path class="st2" d="M79.4,13.1c0.4,0,0.6,0.3,0.6,0.6c0,0.4-0.3,0.6-0.6,0.6c-0.4,0-0.6-0.3-0.6-0.6C78.8,13.3,79,13.1,79.4,13.1z
		 M79.4,14.2L79.4,14.2c0.3,0,0.5-0.2,0.5-0.5c0-0.3-0.2-0.5-0.5-0.5c-0.3,0-0.5,0.2-0.5,0.5C78.9,14,79.1,14.2,79.4,14.2z M79.1,14
		L79.1,14L79.1,14C79.1,14,79.2,14,79.1,14l0.1-0.5c0-0.1,0-0.1-0.1-0.1v0h0.3c0.1,0,0.2,0.1,0.2,0.2c0,0.1-0.1,0.2-0.1,0.2l0.1,0.1
		c0,0.1,0.1,0.1,0.1,0.1v0h-0.1c-0.1,0-0.1-0.1-0.2-0.3h-0.1v0.2c0,0,0,0,0.1,0v0L79.1,14L79.1,14z M79.3,13.7L79.3,13.7L79.3,13.7
		c0.2,0,0.2-0.1,0.2-0.2c0-0.1-0.1-0.1-0.1-0.1h-0.1V13.7z"/>
	<path class="st0" d="M15.3,20.7c5.7,0,10.8-4.6,10.8-10.3C26.2,4.3,21,0,15.3,0h-4.9C4.7,0,0,4.3,0,10.5c0,5.7,4.7,10.3,10.5,10.3
		H15.3z"/>
	<path class="st1" d="M10.5,0.9C5.2,0.9,1,5.1,1,10.3c0,5.2,4.2,9.5,9.5,9.5c5.2,0,9.5-4.2,9.5-9.5C20,5.1,15.7,0.9,10.5,0.9z
		 M4.5,10.3L4.5,10.3c0-2.6,1.6-4.7,3.9-5.6V16C6.1,15.1,4.5,12.9,4.5,10.3z M12.6,16L12.6,16V4.7c2.3,0.9,3.9,3.1,3.9,5.6
		C16.5,12.9,14.9,15.1,12.6,16z"/>
	<path class="st2" d="M29.5,4.5c0-1-0.5-0.9-1-0.9V3.2c0.4,0,0.9,0,1.3,0c0.5,0,1.1,0,1.9,0c2.8,0,4.4,1.9,4.4,3.8
		c0,1.1-0.6,3.8-4.5,3.8c-0.6,0-1.1,0-1.6,0c-0.5,0-1,0-1.5,0v-0.3c0.7-0.1,1-0.1,1-0.8L29.5,4.5L29.5,4.5z M30.6,9.6L30.6,9.6
		c0,0.8,0.6,0.9,1.1,0.9c2.4,0,3.1-1.8,3.1-3.4c0-2-1.3-3.5-3.4-3.5c-0.4,0-0.7,0-0.9,0L30.6,9.6L30.6,9.6z"/>
	<path class="st2" d="M36.4,10.6h0.2c0.3,0,0.5,0,0.5-0.4v-3c0-0.5-0.2-0.5-0.6-0.8V6.3c0.5-0.2,1.1-0.4,1.2-0.4
		c0.1,0,0.1-0.1,0.2-0.1C38,5.9,38,5.9,38,6v4.2c0,0.4,0.2,0.4,0.5,0.4h0.2v0.3c-0.4,0-0.8,0-1.1,0c-0.4,0-0.8,0-1.2,0L36.4,10.6
		L36.4,10.6z M37.6,4.2L37.6,4.2c-0.3,0-0.5-0.3-0.5-0.5c0-0.3,0.3-0.5,0.5-0.5c0.3,0,0.5,0.2,0.5,0.5C38.1,3.9,37.9,4.2,37.6,4.2z"
		/>
	<path class="st2" d="M39.8,7.3c0-0.4-0.1-0.5-0.6-0.7V6.4c0.5-0.2,0.9-0.3,1.4-0.5c0,0,0.1,0,0.1,0.1v0.7c0.6-0.4,1.2-0.8,1.9-0.8
		c0.9,0,1.3,0.7,1.3,1.5v2.8c0,0.4,0.2,0.4,0.5,0.4h0.2v0.3c-0.4,0-0.8,0-1.2,0c-0.4,0-0.8,0-1.2,0v-0.3h0.2c0.3,0,0.5,0,0.5-0.4
		V7.4c0-0.6-0.4-0.9-1-0.9c-0.3,0-0.9,0.3-1.3,0.5v3.2c0,0.4,0.2,0.4,0.5,0.4h0.2v0.3c-0.4,0-0.8,0-1.2,0c-0.4,0-0.8,0-1.2,0v-0.3
		h0.2c0.3,0,0.5,0,0.5-0.4L39.8,7.3L39.8,7.3z"/>
	<path class="st2" d="M45.4,7.9c0,0.1,0,0.3,0,0.6c0.1,1,0.7,1.9,1.6,1.9c0.6,0,1.1-0.3,1.5-0.7l0.2,0.2c-0.5,0.7-1.1,1.2-2,1.2
		c-1.7,0-2.1-1.7-2.1-2.4c0-2.1,1.4-2.8,2.2-2.8c0.9,0,1.8,0.6,1.8,1.7c0,0.1,0,0.1,0,0.2l-0.1,0.1H45.4L45.4,7.9z M47.3,7.5
		L47.3,7.5c0.3,0,0.3-0.1,0.3-0.3c0-0.6-0.3-1-0.9-1c-0.7,0-1.1,0.5-1.3,1.3H47.3L47.3,7.5z"/>
	<path class="st2" d="M48.8,10.6h0.3c0.3,0,0.5,0,0.5-0.4V7.2c0-0.3-0.4-0.4-0.6-0.5V6.5c0.8-0.3,1.2-0.6,1.3-0.6
		c0.1,0,0.1,0,0.1,0.1v1h0c0.3-0.4,0.7-1.1,1.4-1.1c0.3,0,0.6,0.2,0.6,0.6C52.5,6.7,52.3,7,52,7c-0.3,0-0.3-0.3-0.7-0.3
		c-0.2,0-0.8,0.3-0.8,0.9v2.6c0,0.4,0.2,0.4,0.5,0.4h0.6v0.3c-0.6,0-1.1,0-1.5,0c-0.4,0-0.9,0-1.3,0L48.8,10.6L48.8,10.6z"/>
	<path class="st2" d="M53,9.3c0.1,0.7,0.6,1.3,1.4,1.3c0.6,0,0.9-0.4,0.9-0.8c0-1.3-2.4-0.9-2.4-2.6c0-0.6,0.5-1.4,1.7-1.4
		c0.3,0,0.8,0.1,1.2,0.3l0.1,1.1h-0.3c-0.1-0.7-0.5-1.1-1.2-1.1c-0.4,0-0.8,0.3-0.8,0.7c0,1.3,2.5,0.9,2.5,2.6
		c0,0.7-0.6,1.5-1.9,1.5c-0.4,0-0.9-0.2-1.3-0.4l-0.1-1.3L53,9.3L53,9.3z"/>
	<path class="st2" d="M65.9,5.2h-0.3c-0.2-1.3-1.1-1.8-2.3-1.8c-1.3,0-3.1,0.8-3.1,3.5c0,2.2,1.6,3.8,3.2,3.8c1.1,0,2-0.7,2.2-1.9
		L66,8.9l-0.3,1.6C65.2,10.7,64,11,63.3,11c-2.6,0-4.2-1.6-4.2-4.1c0-2.2,2-3.8,4.1-3.8c0.9,0,1.7,0.3,2.6,0.6L65.9,5.2L65.9,5.2z"
		/>
	<path class="st2" d="M66.3,10.6h0.2c0.3,0,0.5,0,0.5-0.4V4.1c0-0.7-0.2-0.7-0.6-0.9V3.1c0.4-0.1,0.9-0.3,1.1-0.5
		c0.1-0.1,0.2-0.1,0.2-0.1c0.1,0,0.1,0.1,0.1,0.2v7.5c0,0.4,0.2,0.4,0.5,0.4h0.2v0.3c-0.4,0-0.8,0-1.1,0c-0.4,0-0.8,0-1.2,0
		L66.3,10.6L66.3,10.6z"/>
	<path class="st2" d="M73.3,10.3c0,0.2,0.1,0.2,0.3,0.2c0.1,0,0.3,0,0.4,0v0.2c-0.5,0-1.4,0.3-1.6,0.3l-0.1,0v-0.9
		c-0.7,0.5-1.2,0.9-1.9,0.9c-0.6,0-1.2-0.4-1.2-1.3V6.9c0-0.3,0-0.6-0.7-0.6V6.1c0.4,0,1.3-0.1,1.4-0.1c0.1,0,0.1,0.1,0.1,0.3v2.8
		c0,0.3,0,1.3,0.9,1.3c0.4,0,0.9-0.3,1.3-0.7V6.8c0-0.2-0.5-0.3-0.9-0.4V6.2c1-0.1,1.6-0.2,1.7-0.2c0.1,0,0.1,0.1,0.1,0.2L73.3,10.3
		L73.3,10.3z"/>
	<path class="st2" d="M75.5,6.7c0.4-0.4,1-0.8,1.6-0.8c1.3,0,2,1.1,2,2.3c0,1.4-1,2.9-2.6,2.9c-0.8,0-1.2-0.3-1.5-0.4l-0.3,0.3
		l-0.2-0.1c0.1-0.6,0.2-1.3,0.2-1.9V4.1c0-0.7-0.2-0.7-0.6-0.9V3.1c0.4-0.1,0.9-0.3,1.1-0.5c0.1-0.1,0.2-0.1,0.2-0.1
		c0.1,0,0.1,0.1,0.1,0.2L75.5,6.7L75.5,6.7L75.5,6.7z M75.5,9.6L75.5,9.6c0,0.4,0.4,1.1,1.1,1.1c1.2,0,1.7-1.1,1.7-2.1
		c0-1.2-0.9-2.2-1.7-2.2c-0.4,0-0.7,0.3-1,0.5L75.5,9.6L75.5,9.6z"/>
	<path class="st2" d="M28.5,17.2L28.5,17.2c0.3,0,0.5,0,0.5-0.3v-3.1c0-0.3-0.2-0.3-0.4-0.3h-0.1v-0.2c0.2,0,0.6,0,0.9,0
		c0.3,0,0.7,0,0.9,0v0.2h-0.1c-0.2,0-0.4,0-0.4,0.3v3.1c0,0.3,0.2,0.3,0.4,0.3h0.1v0.2c-0.3,0-0.6,0-0.9,0c-0.3,0-0.6,0-0.9,0
		L28.5,17.2L28.5,17.2z"/>
	<path class="st2" d="M30.3,17.4c-0.3,0-0.6,0-0.9,0c-0.3,0-0.6,0-0.9,0h0v0v-0.2v0h0h0.1c0.2,0,0.4,0,0.4-0.3v-3.1
		c0-0.3-0.2-0.3-0.4-0.3h-0.1v0v-0.2h0c0.2,0,0.6,0,0.9,0c0.3,0,0.7,0,0.9,0h0v0v0.2h0h-0.1c-0.2,0-0.4,0-0.4,0.3v3.1
		c0,0.3,0.2,0.3,0.4,0.3h0.1v0L30.3,17.4L30.3,17.4L30.3,17.4z M30.3,17.4L30.3,17.4v-0.1h-0.1c-0.2,0-0.5,0-0.5-0.4v-3.1
		c0-0.3,0.3-0.4,0.5-0.4h0.1v-0.1c-0.3,0-0.6,0-0.9,0c-0.3,0-0.6,0-0.9,0v0.1h0.1c0.2,0,0.5,0,0.5,0.4v3.1c0,0.3-0.3,0.4-0.5,0.4
		h-0.1v0.1c0.2,0,0.6,0,0.8,0C29.6,17.3,30,17.4,30.3,17.4L30.3,17.4z"/>
	<path class="st2" d="M34.4,16.2L34.4,16.2l0-2.2c0-0.5-0.3-0.6-0.5-0.6h-0.1v-0.2c0.3,0,0.6,0,0.8,0c0.2,0,0.5,0,0.7,0v0.2h-0.1
		c-0.2,0-0.5,0-0.5,0.8v2.7c0,0.2,0,0.4,0,0.6h-0.2l-3.1-3.4v2.4c0,0.5,0.1,0.7,0.6,0.7h0.1v0.2c-0.3,0-0.5,0-0.8,0
		c-0.3,0-0.5,0-0.8,0v-0.2h0.1c0.4,0,0.5-0.3,0.5-0.8v-2.5c0-0.3-0.3-0.5-0.5-0.5h-0.1v-0.2c0.2,0,0.5,0,0.7,0c0.2,0,0.4,0,0.5,0
		L34.4,16.2L34.4,16.2z"/>
	<path class="st2" d="M34.7,17.5l-0.2,0l-3-3.4v2.4c0,0.5,0.1,0.7,0.5,0.7h0.1v0v0.2h0c-0.3,0-0.5,0-0.8,0c-0.3,0-0.5,0-0.8,0h0v0
		v-0.2h0h0.1c0.4,0,0.5-0.3,0.5-0.7v-2.5c0-0.3-0.3-0.5-0.5-0.5h-0.1v0v-0.2h0c0.2,0,0.5,0,0.7,0c0.2,0,0.3,0,0.5,0l2.6,2.9V14
		c0-0.5-0.3-0.5-0.5-0.5h-0.2v0v-0.2h0c0.3,0,0.6,0,0.8,0c0.2,0,0.5,0,0.7,0h0v0v0.2h0h-0.1c-0.2,0-0.5,0-0.5,0.7v2.7
		C34.7,17.1,34.7,17.3,34.7,17.5L34.7,17.5L34.7,17.5L34.7,17.5z M34.5,17.4L34.5,17.4h0.2c0-0.2,0-0.4,0-0.6v-2.7
		c0-0.7,0.3-0.8,0.6-0.8h0.1v-0.1c-0.2,0-0.5,0-0.7,0c-0.3,0-0.5,0-0.8,0l0,0.1h0.1c0.2,0,0.5,0.1,0.5,0.6l0,2.2l0,0l0,0l-2.6-3
		c-0.2,0-0.3,0-0.5,0c-0.2,0-0.4,0-0.7,0l0,0.1h0.1c0.3,0,0.6,0.2,0.6,0.6v2.5c0,0.5-0.1,0.8-0.6,0.8l-0.1,0v0.1c0.3,0,0.5,0,0.8,0
		c0.2,0,0.5,0,0.7,0v-0.1H32c-0.5,0-0.6-0.2-0.6-0.7V14L34.5,17.4L34.5,17.4z M34.4,16.2L34.4,16.2L34.4,16.2L34.4,16.2z M34.3,16.2
		L34.3,16.2L34.3,16.2L34.3,16.2L34.3,16.2z"/>
	<path class="st2" d="M36.2,13.5c-0.4,0-0.5,0.1-0.6,0.5h-0.2c0-0.2,0.1-0.3,0.1-0.5c0-0.2,0-0.3,0-0.5h0.1c0,0.2,0.2,0.2,0.4,0.2
		h3.1c0.2,0,0.3,0,0.3-0.2l0.1,0c0,0.2,0,0.3-0.1,0.5c0,0.2,0,0.3,0,0.5l-0.2,0.1c0-0.2,0-0.6-0.4-0.6h-1v3.2c0,0.5,0.2,0.5,0.5,0.5
		h0.1v0.2c-0.2,0-0.6,0-1,0c-0.4,0-0.8,0-1,0v-0.2h0.1c0.3,0,0.5,0,0.5-0.5v-3.2L36.2,13.5L36.2,13.5z"/>
	<path class="st2" d="M38.5,17.4c-0.2,0-0.6,0-1,0c-0.4,0-0.8,0-1,0h0v0v-0.2h0h0.1c0.3,0,0.5,0,0.5-0.5v-3.1h-0.9v0v0h1v3.2
		c0,0.5-0.2,0.5-0.5,0.5h-0.1v0.1c0.2,0,0.6,0,1,0C37.9,17.3,38.2,17.3,38.5,17.4l0-0.2h-0.1c-0.3,0-0.5-0.1-0.5-0.5v-3.2h1
		c0.4,0,0.4,0.3,0.5,0.6l0.1,0c0-0.2,0-0.3,0-0.5c0-0.2,0-0.3,0.1-0.5l-0.1,0c0,0.2-0.2,0.2-0.3,0.2H36h0c-0.1,0-0.3,0-0.3-0.2h-0.1
		c0,0.2,0,0.3,0,0.5c0,0.2,0,0.3-0.1,0.5h0.1c0.1-0.4,0.1-0.5,0.6-0.5v0v0c-0.4,0-0.4,0.1-0.5,0.5l0,0h0h-0.2l0,0
		c0-0.2,0.1-0.3,0.1-0.5c0-0.2,0-0.3,0-0.5v0h0h0.2l0,0c0,0.1,0.2,0.2,0.3,0.2h0h3.1c0.2,0,0.3,0,0.3-0.2l0,0l0,0l0.2,0l0,0
		c0,0.2,0,0.3-0.1,0.5c0,0.2,0,0.3,0,0.5v0l0,0l-0.2,0.1l0,0c0-0.2,0-0.5-0.4-0.5h-0.9v3.1c0,0.4,0.2,0.5,0.5,0.5h0.1v0L38.5,17.4
		L38.5,17.4L38.5,17.4z"/>
	<path class="st2" d="M39.8,17.2L39.8,17.2c0.3,0,0.5,0,0.5-0.3v-3.1c0-0.3-0.2-0.3-0.4-0.3h-0.1v-0.2c0.4,0,1,0,1.5,0
		c0.5,0,1.1,0,1.5,0c0,0.3,0,0.6,0,0.9l-0.2,0c0-0.4-0.1-0.7-0.7-0.7H41v1.6h0.7c0.4,0,0.4-0.2,0.5-0.5h0.2c0,0.2,0,0.5,0,0.7
		c0,0.2,0,0.5,0,0.7l-0.2,0c0-0.4-0.1-0.6-0.5-0.6H41v1.4c0,0.4,0.3,0.4,0.7,0.4c0.7,0,1,0,1.2-0.7l0.2,0c-0.1,0.3-0.1,0.6-0.2,0.9
		c-0.4,0-1.1,0-1.6,0c-0.5,0-1.2,0-1.6,0L39.8,17.2L39.8,17.2z"/>
	<path class="st2" d="M42.9,17.4c-0.4,0-1.1,0-1.6,0c-0.5,0-1.2,0-1.6,0h0v0v-0.2v0h0h0.1c0.2,0,0.4,0,0.4-0.3v-3.1
		c0-0.3-0.2-0.3-0.4-0.3h-0.1v0v-0.2h0c0.4,0,1,0,1.5,0c0.5,0,1.1,0,1.5,0h0l0,0c0,0.1,0,0.2,0,0.3c0,0.2,0,0.4,0,0.6l0,0l0,0
		l-0.2,0.1l0,0c0-0.4-0.1-0.7-0.7-0.7h-0.8l0,1.5h0.7c0.3,0,0.4-0.2,0.4-0.5l0,0h0h0.2l0,0c0,0.2,0,0.5,0,0.7c0,0.2,0,0.4,0,0.7l0,0
		l0,0l-0.2,0l0,0c0-0.4,0-0.6-0.4-0.6l-0.7,0v1.4c0,0.4,0.3,0.4,0.7,0.4c0.7,0,1,0,1.2-0.7l0,0l0,0l0.2,0l0,0
		C43.1,16.8,43,17.1,42.9,17.4L42.9,17.4L42.9,17.4L42.9,17.4z M42.9,17.4L42.9,17.4c0.1-0.3,0.1-0.6,0.2-0.9l-0.1,0
		c-0.2,0.7-0.5,0.7-1.2,0.7c-0.4,0-0.7,0-0.7-0.4v-1.4h0.7c0.4,0,0.5,0.2,0.5,0.6l0.1,0c0-0.2,0-0.4,0-0.7c0-0.2,0-0.4,0-0.7h-0.1
		c0,0.3-0.1,0.5-0.5,0.5H41v-1.6h0.9c0.6,0,0.7,0.3,0.7,0.7l0.1,0c0-0.2,0-0.4,0-0.6c0-0.1,0-0.2,0-0.3c-0.4,0-1,0-1.5,0
		c-0.5,0-1.1,0-1.5,0v0.1h0.1c0.2,0,0.5,0,0.5,0.4v3.1c0,0.3-0.3,0.4-0.5,0.4h-0.1v0.1c0.3,0,1,0,1.6,0
		C41.9,17.3,42.5,17.4,42.9,17.4L42.9,17.4z"/>
	<path class="st2" d="M43.9,13.9c0-0.4-0.2-0.5-0.4-0.5h-0.1v-0.2c0.2,0,0.6,0,0.9,0c0.4,0,0.6,0,1,0c0.7,0,1.4,0.2,1.4,1
		c0,0.5-0.4,0.9-0.8,1l1,1.5c0.2,0.3,0.3,0.3,0.6,0.4v0.2c-0.2,0-0.4,0-0.6,0c-0.2,0-0.4,0-0.6,0c-0.5-0.6-0.8-1.2-1.2-1.9h-0.4v1.3
		c0,0.5,0.2,0.5,0.5,0.5h0.1v0.2c-0.3,0-0.7,0-1,0c-0.3,0-0.6,0-0.9,0v-0.2h0.1c0.2,0,0.4-0.1,0.4-0.3L43.9,13.9L43.9,13.9z
		 M44.7,15.2L44.7,15.2H45c0.6,0,0.9-0.2,0.9-0.9c0-0.5-0.3-0.9-0.9-0.9c-0.2,0-0.3,0-0.3,0L44.7,15.2L44.7,15.2z"/>
	<path class="st2" d="M47.5,17.4c-0.2,0-0.4,0-0.6,0c-0.2,0-0.4,0-0.6,0c-0.5-0.6-0.8-1.2-1.2-1.9h-0.4v1.2c0,0.4,0.2,0.4,0.5,0.4
		h0.1v0v0.2h0c-0.3,0-0.7,0-1,0c-0.3,0-0.6,0-0.9,0h0v0v-0.2h0h0.1c0.2,0,0.4-0.1,0.4-0.3v-3c0-0.4-0.2-0.4-0.4-0.4h-0.1v0v-0.2h0
		c0.2,0,0.6,0,0.9,0c0.4,0,0.6,0,1,0c0.7,0,1.4,0.2,1.4,1.1c0,0.5-0.4,0.9-0.8,1.1l1,1.5c0.2,0.2,0.3,0.3,0.6,0.3l0,0v0L47.5,17.4
		L47.5,17.4L47.5,17.4z M44.7,15.4L44.7,15.4h0.4l0,0c0.4,0.7,0.8,1.3,1.2,1.9c0.2,0,0.4,0,0.6,0c0.2,0,0.4,0,0.6,0v-0.1
		c-0.3,0-0.4-0.1-0.6-0.4l-1-1.5l0,0c0.5-0.2,0.8-0.5,0.8-1c0-0.8-0.6-1-1.4-1c-0.3,0-0.6,0-1,0c-0.3,0-0.7,0-0.9,0v0.1h0.1
		c0.2,0,0.4,0,0.4,0.5v3c0,0.2-0.2,0.3-0.4,0.3h-0.1v0.1c0.3,0,0.6,0,0.8,0c0.3,0,0.7,0,1,0v-0.1h-0.1c-0.3,0-0.5,0-0.5-0.5
		L44.7,15.4L44.7,15.4L44.7,15.4z M44.7,15.3L44.7,15.3L44.7,15.3l0-1.8l0,0c0.1,0,0.2,0,0.3,0c0.5,0,0.9,0.4,0.9,0.9
		c0,0.7-0.3,0.9-0.9,0.9L44.7,15.3L44.7,15.3z M45,15.2L45,15.2c0.6,0,0.9-0.2,0.9-0.9c0-0.5-0.3-0.8-0.8-0.8c-0.2,0-0.2,0-0.3,0
		v1.7H45L45,15.2z"/>
	<path class="st2" d="M51.5,16.2L51.5,16.2l0-2.2c0-0.5-0.3-0.6-0.5-0.6h-0.1v-0.2c0.3,0,0.6,0,0.8,0c0.2,0,0.5,0,0.7,0v0.2h-0.1
		c-0.2,0-0.5,0-0.5,0.8v2.7c0,0.2,0,0.4,0,0.6h-0.2l-3.1-3.4v2.4c0,0.5,0.1,0.7,0.6,0.7h0.1v0.2c-0.3,0-0.5,0-0.8,0
		c-0.3,0-0.5,0-0.8,0v-0.2h0.1c0.4,0,0.5-0.3,0.5-0.8v-2.5c0-0.3-0.3-0.5-0.5-0.5h-0.1v-0.2c0.2,0,0.5,0,0.7,0c0.2,0,0.3,0,0.5,0
		L51.5,16.2L51.5,16.2z"/>
	<path class="st2" d="M51.8,17.5l-0.2,0l-3-3.4v2.4c0,0.5,0.1,0.7,0.5,0.7h0.1v0v0.2h0c-0.3,0-0.5,0-0.8,0c-0.3,0-0.5,0-0.8,0h0v0
		v-0.2h0h0.1c0.4,0,0.5-0.3,0.5-0.7v-2.5c0-0.3-0.3-0.5-0.5-0.5h-0.1v0v-0.2h0c0.2,0,0.5,0,0.7,0c0.2,0,0.3,0,0.5,0l2.6,2.9V14
		c0-0.5-0.3-0.5-0.5-0.5h-0.2v0v-0.2h0c0.3,0,0.6,0,0.8,0c0.2,0,0.5,0,0.7,0h0v0v0.2h0h-0.1c-0.2,0-0.5,0-0.5,0.7v2.7
		C51.8,17.1,51.8,17.3,51.8,17.5L51.8,17.5L51.8,17.5L51.8,17.5z M51.6,17.4L51.6,17.4h0.2c0-0.2,0-0.4,0-0.6v-2.7
		c0-0.7,0.3-0.8,0.6-0.8h0.1v-0.1c-0.2,0-0.5,0-0.7,0c-0.3,0-0.5,0-0.8,0v0.1H51c0.2,0,0.5,0.1,0.5,0.6l0,2.2l0,0l0,0l-2.6-3
		c-0.2,0-0.3,0-0.5,0c-0.2,0-0.4,0-0.7,0v0.1h0.1c0.3,0,0.6,0.2,0.6,0.6v2.5c0,0.5-0.1,0.8-0.6,0.8l-0.1,0v0.1c0.3,0,0.5,0,0.8,0
		c0.2,0,0.5,0,0.7,0v-0.1h-0.1c-0.5,0-0.6-0.2-0.6-0.7V14L51.6,17.4L51.6,17.4z M51.5,16.2L51.5,16.2L51.5,16.2L51.5,16.2z
		 M51.5,16.2L51.5,16.2L51.5,16.2L51.5,16.2L51.5,16.2z"/>
	<path class="st2" d="M53.4,16.5c-0.1,0.2-0.1,0.4-0.1,0.5c0,0.2,0.2,0.2,0.4,0.2h0.1v0.2c-0.2,0-0.5,0-0.7,0c-0.2,0-0.4,0-0.6,0
		v-0.2h0c0.2,0,0.4-0.1,0.5-0.4l1-2.7c0.1-0.2,0.2-0.5,0.2-0.7c0.2-0.1,0.4-0.2,0.5-0.3c0,0,0,0,0,0c0,0,0,0,0,0c0,0,0,0.1,0.1,0.1
		l1.1,3.1c0.1,0.2,0.1,0.4,0.2,0.6c0.1,0.2,0.2,0.2,0.4,0.2h0v0.2c-0.3,0-0.5,0-0.8,0c-0.3,0-0.6,0-0.9,0v-0.2h0.1
		c0.1,0,0.4,0,0.4-0.2c0-0.1-0.1-0.2-0.1-0.4l-0.2-0.7h-1.3L53.4,16.5L53.4,16.5z M54.2,13.9L54.2,13.9L54.2,13.9l-0.6,1.7h1.1
		L54.2,13.9z"/>
	<path class="st2" d="M56.5,17.4c-0.3,0-0.5,0-0.8,0c-0.3,0-0.6,0-0.9,0l0,0v0v-0.2h0h0.1c0.1,0,0.3,0,0.3-0.1
		c0-0.1-0.1-0.2-0.1-0.4l-0.2-0.7h-1.3l-0.2,0.6c-0.1,0.2-0.1,0.4-0.1,0.5c0,0.1,0.2,0.2,0.4,0.2h0.1v0v0.2l0,0c-0.2,0-0.5,0-0.7,0
		c-0.2,0-0.4,0-0.6,0l0,0v0v-0.2h0h0c0.2,0,0.4-0.1,0.5-0.4l0.9-2.7c0.1-0.2,0.2-0.5,0.2-0.8c0.2-0.1,0.4-0.2,0.5-0.3c0,0,0,0,0.1,0
		c0,0,0,0,0.1,0c0,0,0,0.1,0.1,0.1l1.1,3.1c0.1,0.2,0.1,0.4,0.2,0.6c0.1,0.2,0.2,0.2,0.4,0.2h0.1v0L56.5,17.4L56.5,17.4L56.5,17.4z
		 M54.8,17.3L54.8,17.3c0.3,0,0.6,0,0.9,0c0.3,0,0.5,0,0.8,0v-0.1h0c-0.2,0-0.3-0.1-0.4-0.3c-0.1-0.2-0.1-0.4-0.2-0.6l-1.1-3.1
		c0,0,0-0.1-0.1-0.1c0,0,0,0,0,0h0c0,0,0,0,0,0c-0.1,0.1-0.4,0.2-0.5,0.2c0,0.2-0.1,0.5-0.2,0.7L53,16.8c-0.1,0.3-0.3,0.4-0.5,0.4h0
		v0.1c0.2,0,0.4,0,0.6,0c0.2,0,0.5,0,0.7,0v-0.1h0c-0.2,0-0.5,0-0.5-0.2c0-0.1,0.1-0.3,0.1-0.5l0,0l0,0l0.2-0.6h1.4l0.2,0.7
		c0.1,0.2,0.1,0.3,0.1,0.4c0,0.2-0.3,0.2-0.4,0.2h0L54.8,17.3L54.8,17.3z M53.6,15.6L53.6,15.6l0.6-1.7h0h0v0l0,0l0,0v0h0l0.6,1.7
		H53.6z M53.7,15.6L53.7,15.6h1L54.2,14L53.7,15.6z M54.2,13.9L54.2,13.9L54.2,13.9L54.2,13.9z"/>
	<path class="st2" d="M56.8,13.5c-0.4,0-0.5,0.1-0.6,0.5h-0.2c0-0.2,0.1-0.3,0.1-0.5c0-0.2,0-0.3,0-0.5h0.1c0,0.2,0.2,0.2,0.4,0.2
		h3.1c0.2,0,0.3,0,0.3-0.2l0.1,0c0,0.2,0,0.3-0.1,0.5c0,0.2,0,0.3,0,0.5l-0.2,0.1c0-0.2,0-0.6-0.4-0.6h-1v3.2c0,0.5,0.2,0.5,0.5,0.5
		h0.1v0.2c-0.2,0-0.6,0-1,0c-0.4,0-0.8,0-1,0v-0.2h0.1c0.3,0,0.5,0,0.5-0.5v-3.2L56.8,13.5L56.8,13.5z"/>
	<path class="st2" d="M59.1,17.4c-0.2,0-0.6,0-1,0c-0.4,0-0.8,0-1,0h0v0v-0.2h0h0.1c0.3,0,0.5,0,0.5-0.5l0-3.1h-0.9v0v0h1v3.2
		c0,0.5-0.2,0.5-0.5,0.5h-0.1v0.1c0.2,0,0.6,0,1,0C58.5,17.3,58.9,17.3,59.1,17.4l0-0.2H59c-0.3,0-0.5-0.1-0.5-0.5v-3.2h1
		c0.4,0,0.5,0.3,0.5,0.6l0.1,0c0-0.2,0-0.3,0-0.5c0-0.2,0-0.3,0.1-0.5l-0.1,0c0,0.2-0.2,0.2-0.3,0.2h-3.1h0c-0.1,0-0.3,0-0.3-0.2
		h-0.1c0,0.2,0,0.3,0,0.5c0,0.2,0,0.3-0.1,0.5h0.1c0.1-0.4,0.1-0.5,0.6-0.5v0v0c-0.4,0-0.4,0.1-0.5,0.5l0,0h0H56l0,0
		c0-0.2,0.1-0.3,0.1-0.5c0-0.2,0-0.3,0-0.5v0h0h0.2l0,0c0,0.1,0.1,0.2,0.3,0.2l0,0h3.1c0.2,0,0.3,0,0.3-0.2l0,0l0,0l0.2,0l0,0
		c0,0.2,0,0.3-0.1,0.5c0,0.2,0,0.3,0,0.5v0l0,0l-0.2,0.1l0,0c0-0.2,0-0.5-0.4-0.5h-0.9v3.1c0,0.4,0.2,0.5,0.5,0.5h0.1v0L59.1,17.4
		L59.1,17.4L59.1,17.4z"/>
	<path class="st2" d="M60.4,17.2L60.4,17.2c0.3,0,0.5,0,0.5-0.3v-3.1c0-0.3-0.2-0.3-0.4-0.3h-0.1v-0.2c0.2,0,0.6,0,0.9,0
		c0.3,0,0.7,0,0.9,0v0.2h-0.1c-0.2,0-0.4,0-0.4,0.3v3.1c0,0.3,0.2,0.3,0.4,0.3h0.1v0.2c-0.3,0-0.6,0-0.9,0c-0.3,0-0.6,0-0.9,0
		L60.4,17.2L60.4,17.2z"/>
	<path class="st2" d="M62.2,17.4c-0.3,0-0.6,0-0.9,0c-0.3,0-0.6,0-0.9,0h0v0v-0.2v0h0h0.1c0.2,0,0.4,0,0.4-0.3v-3.1
		c0-0.3-0.2-0.3-0.4-0.3h-0.1v0v-0.2h0c0.2,0,0.6,0,0.9,0c0.3,0,0.7,0,0.9,0h0v0v0.2h0h-0.1c-0.2,0-0.4,0-0.4,0.3v3.1
		c0,0.3,0.2,0.3,0.4,0.3h0.1v0L62.2,17.4L62.2,17.4L62.2,17.4z M62.2,17.4L62.2,17.4v-0.1h-0.1c-0.2,0-0.5,0-0.5-0.4v-3.1
		c0-0.3,0.3-0.4,0.5-0.4h0.1v-0.1c-0.3,0-0.6,0-0.9,0c-0.3,0-0.6,0-0.9,0v0.1h0.1c0.2,0,0.5,0,0.5,0.4v3.1c0,0.3-0.3,0.4-0.5,0.4
		h-0.1v0.1c0.2,0,0.6,0,0.8,0C61.6,17.3,61.9,17.3,62.2,17.4L62.2,17.4z"/>
	<path class="st2" d="M64.6,13.1c1.3,0,2.3,0.8,2.3,2c0,1.4-1,2.3-2.2,2.3c-1.3,0-2.2-0.9-2.2-2.1C62.4,14.1,63.3,13.1,64.6,13.1
		L64.6,13.1z M64.7,17.2L64.7,17.2c1.2,0,1.4-1,1.4-1.9c0-0.9-0.5-1.9-1.5-1.9c-1,0-1.3,0.9-1.3,1.7C63.2,16.2,63.7,17.2,64.7,17.2
		L64.7,17.2z"/>
	<path class="st2" d="M62.4,15.3c0-1.2,1-2.2,2.2-2.2v0v0C63.4,13.2,62.4,14.1,62.4,15.3c0.1,1.3,1,2.1,2.2,2.1
		c1.3,0,2.2-0.9,2.2-2.2c0-1.2-1-2-2.2-2v0v0c1.3,0,2.3,0.8,2.3,2.1c0,1.4-1,2.3-2.3,2.3C63.3,17.5,62.4,16.6,62.4,15.3L62.4,15.3
		L62.4,15.3z M63.2,15.1L63.2,15.1c0-0.8,0.3-1.7,1.4-1.7c1,0,1.5,1.1,1.5,1.9c0,0.9-0.2,1.9-1.4,1.9v0v0c1.1,0,1.3-1,1.3-1.9
		c0-0.9-0.5-1.9-1.4-1.9C63.6,13.4,63.2,14.3,63.2,15.1c0.1,1.1,0.5,2,1.5,2.1v0v0C63.7,17.2,63.2,16.2,63.2,15.1L63.2,15.1z"/>
	<path class="st2" d="M70.8,16.2L70.8,16.2l0-2.2c0-0.5-0.3-0.6-0.5-0.6h-0.1v-0.2c0.3,0,0.6,0,0.8,0c0.2,0,0.5,0,0.7,0v0.2h-0.1
		c-0.2,0-0.5,0-0.5,0.8v2.7c0,0.2,0,0.4,0,0.6H71l-3.1-3.4v2.4c0,0.5,0.1,0.7,0.6,0.7h0.1v0.2c-0.3,0-0.5,0-0.8,0
		c-0.3,0-0.5,0-0.8,0v-0.2h0.1c0.4,0,0.5-0.3,0.5-0.8v-2.5c0-0.3-0.3-0.5-0.5-0.5H67v-0.2c0.2,0,0.5,0,0.7,0c0.2,0,0.3,0,0.5,0
		L70.8,16.2L70.8,16.2z"/>
	<path class="st2" d="M71.2,17.5l-0.2,0l-3-3.4v2.4c0,0.5,0.1,0.7,0.5,0.7h0.1v0v0.2h0c-0.3,0-0.5,0-0.8,0c-0.3,0-0.5,0-0.8,0h0v0
		v-0.2h0h0.1c0.4,0,0.5-0.3,0.5-0.7v-2.5c0-0.3-0.3-0.5-0.5-0.5H67v0v-0.2h0c0.2,0,0.5,0,0.7,0c0.2,0,0.3,0,0.5,0l2.6,2.9V14
		c0-0.5-0.3-0.5-0.5-0.5h-0.2v0v-0.2h0c0.3,0,0.6,0,0.8,0c0.2,0,0.5,0,0.7,0h0v0v0.2h0h-0.1c-0.2,0-0.5,0-0.5,0.7v2.7
		C71.2,17.1,71.2,17.3,71.2,17.5L71.2,17.5L71.2,17.5L71.2,17.5z M71,17.4L71,17.4h0.2c0-0.2,0-0.4,0-0.6v-2.7
		c0-0.7,0.3-0.8,0.6-0.8h0.1v-0.1c-0.2,0-0.5,0-0.7,0c-0.3,0-0.5,0-0.8,0v0.1h0.1c0.2,0,0.5,0.1,0.5,0.6l0,2.2l0,0l0,0l-2.6-3
		c-0.2,0-0.3,0-0.5,0c-0.2,0-0.4,0-0.7,0v0.1h0.1c0.3,0,0.6,0.2,0.6,0.6v2.5c0,0.5-0.1,0.8-0.6,0.8l-0.1,0v0.1c0.3,0,0.5,0,0.8,0
		c0.2,0,0.5,0,0.7,0v-0.1h-0.1c-0.5,0-0.6-0.2-0.6-0.7V14L71,17.4L71,17.4z M70.8,16.2L70.8,16.2L70.8,16.2L70.8,16.2z M70.8,16.2
		L70.8,16.2L70.8,16.2L70.8,16.2L70.8,16.2z"/>
	<path class="st2" d="M72.7,16.5c-0.1,0.2-0.1,0.4-0.1,0.5c0,0.2,0.2,0.2,0.4,0.2h0.1v0.2c-0.2,0-0.5,0-0.7,0c-0.2,0-0.4,0-0.6,0
		v-0.2h0c0.2,0,0.4-0.1,0.5-0.4l1-2.7c0.1-0.2,0.2-0.5,0.2-0.7c0.2-0.1,0.4-0.2,0.5-0.3c0,0,0,0,0,0c0,0,0,0,0,0c0,0,0,0.1,0.1,0.1
		l1.1,3.1c0.1,0.2,0.1,0.4,0.2,0.6c0.1,0.2,0.2,0.2,0.4,0.2h0v0.2c-0.3,0-0.5,0-0.8,0c-0.3,0-0.6,0-0.9,0v-0.2h0.1
		c0.1,0,0.4,0,0.4-0.2c0-0.1-0.1-0.2-0.1-0.4l-0.2-0.7h-1.3L72.7,16.5L72.7,16.5z M73.6,13.9L73.6,13.9L73.6,13.9L73,15.6h1.1
		L73.6,13.9z"/>
	<path class="st2" d="M75.9,17.4c-0.3,0-0.5,0-0.8,0c-0.3,0-0.6,0-0.9,0l0,0v0v-0.2h0h0.1c0.1,0,0.3,0,0.3-0.1
		c0-0.1-0.1-0.2-0.1-0.4l-0.2-0.7h-1.3l-0.2,0.6c-0.1,0.2-0.1,0.4-0.1,0.5c0,0.1,0.2,0.2,0.4,0.2h0.1v0v0.2l0,0c-0.2,0-0.5,0-0.7,0
		c-0.2,0-0.4,0-0.6,0l0,0v0v-0.2h0h0c0.2,0,0.4-0.1,0.5-0.4l0.9-2.7c0.1-0.2,0.2-0.5,0.2-0.8c0.2-0.1,0.4-0.2,0.5-0.3c0,0,0,0,0.1,0
		c0,0,0,0,0.1,0c0,0,0,0.1,0.1,0.1l1.1,3.1c0.1,0.2,0.1,0.4,0.2,0.6c0.1,0.2,0.2,0.2,0.4,0.2h0.1v0L75.9,17.4L75.9,17.4L75.9,17.4z
		 M74.2,17.4L74.2,17.4c0.3,0,0.6,0,0.9,0c0.3,0,0.5,0,0.8,0l0-0.1h0c-0.2,0-0.3-0.1-0.4-0.3c-0.1-0.2-0.1-0.4-0.2-0.6l-1.1-3.1
		c0,0,0-0.1-0.1-0.1c0,0,0,0,0,0h0c0,0,0,0,0,0c-0.1,0.1-0.4,0.2-0.5,0.2c0,0.2-0.1,0.5-0.2,0.7l-0.9,2.7c-0.1,0.3-0.3,0.4-0.5,0.4
		h0v0.1c0.2,0,0.4,0,0.6,0c0.2,0,0.5,0,0.7,0v-0.1h0c-0.2,0-0.5,0-0.5-0.2c0-0.1,0.1-0.3,0.1-0.5l0,0l0,0l0.2-0.6h1.4l0.2,0.7
		c0.1,0.2,0.1,0.3,0.1,0.4c0,0.2-0.3,0.2-0.4,0.2h0L74.2,17.4L74.2,17.4z M73,15.6L73,15.6l0.6-1.7h0h0v0l0,0l0,0v0h0l0.6,1.7H73z
		 M73.1,15.6L73.1,15.6h1L73.6,14L73.1,15.6L73.1,15.6z M73.6,13.9L73.6,13.9L73.6,13.9L73.6,13.9z"/>
	<path class="st2" d="M77.4,16.8c0,0.2,0.2,0.3,0.4,0.3c0.2,0,0.5,0,0.8,0c0.2,0,0.5-0.2,0.6-0.3c0.1-0.1,0.1-0.3,0.2-0.4h0.2
		c-0.1,0.3-0.1,0.7-0.2,1c-0.5,0-1,0-1.6,0c-0.5,0-1,0-1.6,0v-0.2h0.1c0.2,0,0.4,0,0.4-0.4v-3c0-0.3-0.2-0.3-0.4-0.3h-0.1v-0.2
		c0.3,0,0.6,0,0.9,0c0.3,0,0.6,0,0.9,0v0.2h-0.1c-0.2,0-0.4,0-0.4,0.3V16.8L77.4,16.8z"/>
	<path class="st2" d="M79.2,17.4c-0.5,0-1,0-1.6,0c-0.5,0-1,0-1.6,0h0v0v-0.2h0h0.1c0.2,0,0.4,0,0.4-0.4v-3c0-0.3-0.2-0.3-0.4-0.3
		h-0.1v0v-0.2h0c0.3,0,0.6,0,0.9,0c0.3,0,0.6,0,0.9,0h0v0v0.2h0h-0.1c-0.2,0-0.4,0-0.4,0.3v3.1c0,0.2,0.1,0.3,0.3,0.3
		c0.1,0,0.2,0,0.3,0c0.1,0,0.3,0,0.4,0c0.2,0,0.4-0.2,0.6-0.3c0.1-0.1,0.1-0.3,0.2-0.4l0,0h0h0.2l0,0C79.4,16.7,79.3,17,79.2,17.4
		L79.2,17.4L79.2,17.4L79.2,17.4L79.2,17.4z M79.2,17.4L79.2,17.4c0.1-0.3,0.1-0.6,0.2-1h-0.1c0,0.1-0.1,0.3-0.2,0.4
		c-0.1,0.2-0.3,0.3-0.6,0.3c-0.2,0-0.3,0-0.5,0c-0.1,0-0.2,0-0.3,0c-0.2,0-0.4-0.1-0.4-0.4v-3.1c0-0.3,0.2-0.3,0.4-0.3h0.1v-0.1
		c-0.3,0-0.6,0-0.9,0c-0.3,0-0.6,0-0.9,0v0.1h0.1c0.2,0,0.5,0,0.5,0.4v3c0,0.4-0.3,0.4-0.5,0.4h-0.1v0.1c0.5,0,1,0,1.5,0
		C78.2,17.3,78.7,17.4,79.2,17.4L79.2,17.4z"/>
	<path class="st2" d="M79.4,13.1c0.4,0,0.6,0.3,0.6,0.6c0,0.4-0.3,0.6-0.6,0.6c-0.4,0-0.6-0.3-0.6-0.6C78.8,13.3,79,13.1,79.4,13.1z
		 M79.4,14.2L79.4,14.2c0.3,0,0.5-0.2,0.5-0.5c0-0.3-0.2-0.5-0.5-0.5c-0.3,0-0.5,0.2-0.5,0.5C78.9,14,79.1,14.2,79.4,14.2z M79.1,14
		L79.1,14L79.1,14C79.1,14,79.2,14,79.1,14l0.1-0.5c0-0.1,0-0.1-0.1-0.1v0h0.3c0.1,0,0.2,0.1,0.2,0.2c0,0.1-0.1,0.2-0.1,0.2l0.1,0.1
		c0,0.1,0.1,0.1,0.1,0.1v0h-0.1c-0.1,0-0.1-0.1-0.2-0.3h-0.1v0.2c0,0,0,0,0.1,0v0L79.1,14L79.1,14z M79.3,13.7L79.3,13.7L79.3,13.7
		c0.2,0,0.2-0.1,0.2-0.2c0-0.1-0.1-0.1-0.1-0.1h-0.1V13.7z"/>
</g>
</svg>
