<?xml version="1.0" encoding="utf-8"?>
<!-- Generator: Adobe Illustrator 25.0.1, SVG Export Plug-In . SVG Version: 6.00 Build 0)  -->
<svg version="1.1" id="Layer_1" xmlns="http://www.w3.org/2000/svg" xmlns:xlink="http://www.w3.org/1999/xlink" x="0px" y="0px"
	 width="47.4px" height="30.3px" viewBox="0 0 47.4 30.3" style="enable-background:new 0 0 47.4 30.3;" xml:space="preserve">
<style type="text/css">
	.st0{fill:#FFFFFF;}
	.st1{fill:#231F20;}
	.st2{fill:#F58220;}
	.st3{fill:#001722;}
</style>
<g>
	<path class="st0" d="M0.1,0.2h47v30h-47C0.1,30.2,0.1,0.2,0.1,0.2z"/>
	<path class="st1" d="M47.3,0H0v30.3h47.4L47.3,0L47.3,0z M47,0.4V30H0.3V0.4C0.7,0.4,46.7,0.4,47,0.4z"/>
	<path class="st2" d="M47,16.9c0,0-12.8,9.1-36.4,13.1H47V16.9z M24.8,8.8c-1.9,0-3.5,1.5-3.5,3.4s1.5,3.4,3.5,3.4
		c1.9,0,3.5-1.5,3.5-3.4S26.8,8.8,24.8,8.8z"/>
	<path class="st3" d="M5,8.9H3.1v6.5H5c1,0,1.7-0.2,2.3-0.8C8.1,14,8.5,13,8.5,12C8.5,10.2,7,8.9,5,8.9L5,8.9z M6.5,13.8
		c-0.4,0.4-0.9,0.5-1.7,0.5H4.4V10h0.3c0.8,0,1.3,0.2,1.7,0.5c0.4,0.4,0.7,1,0.7,1.7C7.2,12.8,6.9,13.4,6.5,13.8L6.5,13.8z M9.1,8.9
		h1.3v6.5H9.1V8.9z M13.5,11.4c-0.8-0.3-1-0.4-1-0.8s0.4-0.7,1-0.7c0.4,0,0.7,0.2,1.1,0.5l0.7-0.9c-0.5-0.4-1.2-0.8-1.9-0.8
		c-1.1,0-2,0.8-2,1.9c0,0.9,0.4,1.3,1.7,1.8c0.5,0.2,0.8,0.3,0.9,0.4c0.2,0.2,0.4,0.4,0.4,0.7c0,0.5-0.4,0.9-1,0.9s-1.1-0.3-1.4-0.9
		l-1,0.7c0.6,0.9,1.3,1.3,2.2,1.3c1.3,0,2.2-0.9,2.2-2.2C15.4,12.4,14.9,11.9,13.5,11.4L13.5,11.4z M15.8,12.1
		c0,1.9,1.5,3.4,3.4,3.4c0.5,0,1.1-0.1,1.6-0.4v-1.5c-0.5,0.5-1,0.8-1.6,0.8c-1.3,0-2.2-0.9-2.2-2.2c0-1.3,1-2.2,2.2-2.2
		c0.6,0,1.1,0.2,1.6,0.7V9.2c-0.5-0.3-1.1-0.4-1.6-0.4C17.3,8.8,15.8,10.3,15.8,12.1z M31.2,13.3L29.5,9h-1.4l2.8,6.7h0.7L34.4,9
		h-1.3L31.2,13.3z M35,15.4h3.6v-1.1h-2.3v-1.7h2.3v-1.1h-2.3V10h2.3V8.9H35C35,8.9,35,15.4,35,15.4z M43.6,10.8
		c0-1.2-0.8-1.9-2.3-1.9h-1.9v6.5h1.3v-2.6h0.2l1.8,2.6h1.6l-2.1-2.8C43.1,12.5,43.7,11.8,43.6,10.8L43.6,10.8z M41.1,11.9h-0.4v-2
		h0.4c0.8,0,1.2,0.3,1.2,1C42.3,11.5,41.9,11.9,41.1,11.9z"/>
	<path class="st1" d="M44.5,9.4c0-0.2-0.1-0.2-0.2-0.2h-0.2v0.6h0.2V9.6l0.2,0.2h0.2l-0.2-0.2C44.5,9.5,44.6,9.4,44.5,9.4L44.5,9.4z
		 M44.3,9.4V9.2C44.4,9.3,44.4,9.3,44.3,9.4C44.4,9.4,44.4,9.4,44.3,9.4L44.3,9.4z"/>
	<path class="st1" d="M44.3,9c-0.3,0-0.5,0.2-0.5,0.5S44,10,44.3,10s0.5-0.2,0.5-0.5S44.6,9,44.3,9z M44.3,9.9
		c-0.2,0-0.4-0.2-0.4-0.4c0-0.2,0.2-0.4,0.4-0.4s0.4,0.2,0.4,0.4C44.8,9.7,44.5,9.9,44.3,9.9z"/>
</g>
</svg>
