<?xml version="1.0" encoding="utf-8"?>
<!-- Generator: Adobe Illustrator 25.0.1, SVG Export Plug-In . SVG Version: 6.00 Build 0)  -->
<svg version="1.1" id="Layer_1" xmlns="http://www.w3.org/2000/svg" xmlns:xlink="http://www.w3.org/1999/xlink" x="0px" y="0px"
	 width="34.3px" height="26px" viewBox="0 0 34.3 26" style="enable-background:new 0 0 34.3 26;" xml:space="preserve">
<style type="text/css">
	.st0{fill:url(#SVGID_1_);}
	.st1{fill:url(#SVGID_2_);}
	.st2{fill:url(#SVGID_3_);}
	.st3{fill:url(#SVGID_4_);}
	.st4{fill:url(#SVGID_5_);}
</style>
<g id="g6386">
</g>
<g>
	
		<linearGradient id="SVGID_1_" gradientUnits="userSpaceOnUse" x1="25.9376" y1="-60.6" x2="29.6129" y2="-60.6" gradientTransform="matrix(1 0 0 -1 0 -46)">
		<stop  offset="0" style="stop-color:#50B031"/>
		<stop  offset="1" style="stop-color:#55B330"/>
	</linearGradient>
	<path class="st0" d="M25.9,15.7h2.5c0.1,0,0.2,0,0.3,0c0.5-0.1,0.9-0.5,0.9-1.1s-0.4-1-0.9-1.1c-0.1,0-0.2,0-0.3,0h-2.5V15.7z"/>
	
		<linearGradient id="SVGID_2_" gradientUnits="userSpaceOnUse" x1="23.8036" y1="-58.95" x2="34.45" y2="-58.95" gradientTransform="matrix(1 0 0 -1 0 -46)">
		<stop  offset="0" style="stop-color:#50B031"/>
		<stop  offset="1" style="stop-color:#55B330"/>
	</linearGradient>
	<path class="st1" d="M23.8,4.3v4.5h6.1c0.1,0,0.3,0,0.4,0c1.4,0.1,2.4,0.8,2.4,2c0,1-0.7,1.8-2,2l0,0c1.5,0.1,2.5,0.9,2.5,2.1
		c0,1.3-1.2,2.2-2.8,2.2h-6.7v8.8H30c2.4,0,4.3-1.9,4.3-4.3V0H28C25.8,0,23.8,1.9,23.8,4.3z"/>
	
		<linearGradient id="SVGID_3_" gradientUnits="userSpaceOnUse" x1="25.9376" y1="-57.15" x2="29.3046" y2="-57.15" gradientTransform="matrix(1 0 0 -1 0 -46)">
		<stop  offset="0" style="stop-color:#50B031"/>
		<stop  offset="1" style="stop-color:#55B330"/>
	</linearGradient>
	<path class="st2" d="M29.3,11.1c0-0.6-0.4-0.9-0.9-1h-0.2h-2.3v2.1h2.3c0.1,0,0.2,0,0.2,0C28.9,12,29.3,11.6,29.3,11.1z"/>
	
		<linearGradient id="SVGID_4_" gradientUnits="userSpaceOnUse" x1="-4.999924e-02" y1="-58.95" x2="10.5964" y2="-58.95" gradientTransform="matrix(1 0 0 -1 0 -46)">
		<stop  offset="0" style="stop-color:#016AB7"/>
		<stop  offset="1" style="stop-color:#006DBA"/>
	</linearGradient>
	<path class="st3" d="M0,4.3v10.6c1.2,0.6,2.5,1,3.7,1C5.2,15.9,6,15,6,13.8v-5h3.7v5c0,1.9-1.2,3.5-5.3,3.5c-2.5,0-4.4-0.5-4.4-0.5
		v9.1h6.3c2.4,0,4.3-1.9,4.3-4.3V0H4.3C1.9,0,0,1.9,0,4.3z"/>
	
		<linearGradient id="SVGID_5_" gradientUnits="userSpaceOnUse" x1="11.9" y1="-59" x2="22.5464" y2="-59" gradientTransform="matrix(1 0 0 -1 0 -46)">
		<stop  offset="0" style="stop-color:#DF0237"/>
		<stop  offset="1" style="stop-color:#E30138"/>
	</linearGradient>
	<path class="st4" d="M11.9,4.3v5.6c1.1-0.9,3-1.5,6-1.4C19.5,8.6,21.3,9,21.3,9v1.9C20.4,10.4,19.4,10,18,10c-2.3-0.2-3.7,1-3.7,3
		s1.4,3.2,3.7,3c1.4-0.1,2.4-0.5,3.3-0.9v1.8c0,0-1.7,0.5-3.4,0.5c-3.1,0.1-5-0.5-6-1.4v10h6.3c2.4,0,4.3-1.9,4.3-4.3V0h-6.3
		C13.8,0,11.9,1.9,11.9,4.3z"/>
</g>
</svg>
