<?xml version="1.0" encoding="utf-8"?>
<!-- Generator: Adobe Illustrator 25.0.1, SVG Export Plug-In . SVG Version: 6.00 Build 0)  -->
<svg version="1.1" id="Layer_1" xmlns="http://www.w3.org/2000/svg" xmlns:xlink="http://www.w3.org/1999/xlink" x="0px" y="0px"
	 width="42.5px" height="25.8px" viewBox="0 0 42.5 25.8" style="enable-background:new 0 0 42.5 25.8;" xml:space="preserve">
<style type="text/css">
	.st0{fill:#009DDD;}
	.st1{fill:#ED1C2E;}
	.st2{fill:#FFFFFF;}
</style>
<g>
	<path class="st0" d="M21.4,22.1c2.7-2.4,4.2-5.8,4.2-9.4c0-3.7-1.6-7.1-4.2-9.4C19.1,1.2,16,0,12.8,0C5.8,0,0,5.7,0,12.7
		s5.7,12.8,12.8,12.8C16,25.4,19,24.2,21.4,22.1z"/>
	<path class="st1" d="M29.5,0.3c-3.8,0-7.5,1.7-10,4.6h2.6c0.4,0.4,0.7,0.9,1,1.4h-4.6c-0.3,0.4-0.5,0.9-0.7,1.4h6.1
		c0.2,0.4,0.4,0.9,0.5,1.3h-7.1c-0.1,0.4-0.3,0.9-0.4,1.4h7.9c0.5,2.2,0.4,4.6-0.4,6.8h-7.1c0.2,0.5,0.3,0.9,0.5,1.3h6.1
		c-0.2,0.5-0.5,0.9-0.7,1.4h-4.6c0.3,0.5,0.6,0.9,1,1.3h2.6c-0.4,0.5-0.8,0.9-1.3,1.3c2.4,2.1,5.5,3.3,8.7,3.3
		c7.1,0,12.9-5.7,12.9-12.8C42.4,6,36.7,0.3,29.5,0.3z"/>
	<path class="st2" d="M11.4,16.2H9.8l1-5.1l-2.2,5.1H7.1l-0.3-5.1l-1,5.1H4.3l1.2-6.6H8l0.1,4.1L10,9.6h2.6L11.4,16.2L11.4,16.2z
		 M29.4,16.1c-0.4,0.1-0.8,0.2-1.2,0.2c-0.8,0-1.3-0.4-1.3-1.2c0-0.2,0-0.3,0-0.5l0.1-0.5l0.1-0.4l0.7-4.1h1.6l-0.2,1.2H30l-0.2,1.3
		H29l-0.4,2.2c0,0.1,0,0.1,0,0.2c0,0.3,0.2,0.4,0.5,0.4c0.2,0,0.3,0,0.4-0.1C29.6,14.9,29.4,16.1,29.4,16.1z M34.1,10.9
		c-0.1-0.1-0.2-0.1-0.2-0.1h-0.1c-0.1,0-0.1,0-0.2,0c-0.5,0-0.9,0.2-1.4,0.9l0.1-0.8h-1.5l-1,5.4h1.6c0.6-3.3,0.8-3.9,1.6-3.9
		c0.1,0,0.1,0,0.2,0h0.2C33.5,12.4,34.1,10.9,34.1,10.9z M23,12.5c0,0.7,0.4,1.1,1.2,1.5c0.7,0.3,0.8,0.3,0.8,0.6
		c0,0.3-0.3,0.5-0.9,0.5c-0.5,0-1-0.1-1.5-0.2l-0.2,1.2h0.1l0.3,0.1c0.1,0,0.2,0,0.4,0c0.4,0,0.7,0,0.9,0c1.7,0,2.5-0.6,2.5-1.8
		c0-0.7-0.3-1.2-1.1-1.5c-0.7-0.3-0.8-0.3-0.8-0.6c0-0.3,0.3-0.4,0.8-0.4c0.3,0,0.8,0,1.2,0.1l0.2-1.2c-0.5-0.1-1-0.1-1.4-0.1
		C23.6,10.7,23,11.5,23,12.5z M16.6,16.2h-1.3v-0.6c-0.4,0.4-1,0.7-1.7,0.7c-0.9,0-1.5-0.6-1.5-1.5c0-1.3,1-2.1,2.8-2.1
		c0.2,0,0.4,0,0.7,0c0-0.2,0.1-0.3,0.1-0.3c0-0.4-0.3-0.5-1-0.5c-0.5,0-1,0.1-1.3,0.1l-0.2,0.1h-0.1l0.2-1.2
		c0.8-0.2,1.3-0.3,1.9-0.3c1.4,0,2.1,0.5,2.1,1.6c0,0.3,0,0.5-0.1,1.1l-0.3,1.9l-0.2,0.4v0.3v0.2L16.6,16.2L16.6,16.2z M15.4,13.8
		c-0.1,0-0.2,0-0.4,0c-0.9,0-1.4,0.3-1.4,0.8c0,0.3,0.2,0.5,0.6,0.5C14.9,15.1,15.4,14.6,15.4,13.8z M21.9,16.1
		c-0.5,0.1-1.1,0.2-1.6,0.2c-1.8,0-2.7-0.8-2.7-2.4c0-1.8,1.2-3.2,2.8-3.2c1.3,0,2.2,0.8,2.2,2c0,0.4-0.1,0.8-0.2,1.3h-3.2
		c0,0.1,0,0.1,0,0.2c0,0.6,0.5,0.9,1.4,0.9c0.6,0,1.1-0.1,1.7-0.3C22.2,14.7,21.9,16.1,21.9,16.1z M21,12.9c0-0.1,0-0.2,0-0.3
		c0-0.4-0.3-0.7-0.8-0.7s-0.9,0.3-1,1C19.3,12.9,21,12.9,21,12.9z M39.1,13.8c-0.2,1.8-1.5,2.6-3.1,2.6c-1.8,0-2.6-1.1-2.6-2.5
		c0-1.9,1.2-3.2,3.2-3.2c1.7,0,2.6,1.1,2.6,2.4C39.1,13.4,39.1,13.4,39.1,13.8L39.1,13.8z M37.4,13.1c0-0.6-0.2-1.1-0.9-1.1
		c-0.8,0-1.3,1-1.3,1.8c0,0.7,0.3,1.2,0.9,1.2c0.3,0,1.1-0.5,1.2-1.3C37.4,13.5,37.4,13.3,37.4,13.1z"/>
</g>
</svg>
