<?xml version="1.0" encoding="utf-8"?>
<!-- Generator: Adobe Illustrator 25.0.1, SVG Export Plug-In . SVG Version: 6.00 Build 0)  -->
<svg version="1.1" id="svg2" xmlns="http://www.w3.org/2000/svg" xmlns:xlink="http://www.w3.org/1999/xlink" x="0px" y="0px"
	 width="34.7px" height="27px" viewBox="0 0 34.7 27" style="enable-background:new 0 0 34.7 27;" xml:space="preserve">
<style type="text/css">
	.st0{fill:#F59511;}
	.st1{fill:#EA1C24;}
	.st2{fill:#F14D1C;}
	.st3{fill:#111111;}
</style>
<g id="g10" transform="matrix(1.25 0 0 -1.25 0 60)">
	<g id="g12" transform="scale(.1)">
		<path id="path14" class="st0" d="M277.5,394c0-47.5-38.4-86-85.8-86s-85.8,38.5-85.8,86s38.4,86,85.8,86S277.5,441.5,277.5,394"/>
		<path id="path16" class="st1" d="M171.6,394c0-47.5-38.4-86-85.8-86S0,346.5,0,394s38.4,86,85.8,86S171.6,441.5,171.6,394"/>
		<path id="path18" class="st2" d="M138.7,461.7c-20-15.8-32.8-40.2-32.8-67.7s12.8-52,32.8-67.7c20,15.7,32.9,40.2,32.9,67.7
			S158.7,445.9,138.7,461.7"/>
		<path id="path20" class="st0" d="M272.2,348.4v2.5h1v0.5h-2.6v-0.5h1.1v-2.5H272.2z M277.3,348.4v3.1h-0.8l-0.9-2.1l-0.9,2.1h-0.8
			v-3.1h0.6v2.3l0.9-2h0.6l0.9,2v-2.3H277.3"/>
		<path id="path22" class="st3" d="M19,265.4h-4.9v22.7h4.8v-2.8c0,0,4.2,3.4,6.7,3.4c4.9-0.1,7.7-4.2,7.7-4.2s2.3,4.2,7.6,4.2
			c7.8,0,9-7.1,9-7.1v-16.1h-4.6v14.1c0,0,0,4.3-5,4.3c-5.2,0-5.7-4.3-5.7-4.3v-14.1h-4.9v14.2c0,0-0.5,4.5-4.9,4.5
			c-5.7,0-5.9-4.6-5.9-4.6L19,265.4"/>
		<path id="path24" class="st3" d="M167.1,288.7c-2.5,0.1-6.7-3.4-6.7-3.4v2.8h-4.8v-22.6h4.9l-0.1,14.2c0,0,0.1,4.6,5.9,4.6
			c1.1,0,1.9-0.2,2.6-0.7l1.6,4.4C169.5,288.4,168.3,288.7,167.1,288.7"/>
		<path id="path26" class="st3" d="M235.7,288.7c-2.5,0.1-6.7-3.4-6.7-3.4v2.8h-4.7v-22.6h4.9l-0.1,14.2c0,0,0.1,4.6,5.9,4.6
			c1.1,0,1.9-0.2,2.6-0.7l1.6,4.4C238,288.4,236.9,288.7,235.7,288.7"/>
		<path id="path28" class="st3" d="M66.6,284.2c3.9,0,7.1-3.4,7.1-7.6c0-4.2-3.2-7.6-7.1-7.6s-7,3.4-7,7.6
			C59.5,280.8,62.7,284.2,66.6,284.2z M65.7,288.8c-7.3,0-11.2-6.5-11.2-12c0-5.6,4.4-12.1,11.4-12.1c4,0,7.4,3,7.4,3v-2.3h4.8v22.7
			h-4.8v-2.9C73.3,285.3,70.2,288.8,65.7,288.8"/>
		<path id="path30" class="st3" d="M206.4,284.2c3.9,0,7.1-3.4,7.1-7.6c0-4.2-3.1-7.6-7.1-7.6c-3.9,0-7,3.4-7,7.6
			S202.5,284.2,206.4,284.2z M205.5,288.8c-7.3,0-11.2-6.5-11.2-12c0-5.6,4.4-12.1,11.4-12.1c4.1,0,7.4,3,7.4,3v-2.3h4.8v22.7h-4.8
			v-2.9C213.1,285.3,210,288.8,205.5,288.8"/>
		<path id="path32" class="st3" d="M252.5,284.2c3.9,0,7.1-3.4,7.1-7.6c0-4.2-3.2-7.6-7.1-7.6c-4,0-7.1,3.4-7.1,7.6
			S248.6,284.2,252.5,284.2z M251.5,288.8c-7.3,0-11.2-6.5-11.2-12c0-5.6,4.4-12.1,11.4-12.1c4,0,7.4,3,7.4,3v-2.3h4.8v31.7h-4.8
			v-11.9C259.1,285.3,256,288.8,251.5,288.8"/>
		<path id="path34" class="st3" d="M92.7,264.7c-4.9,0-9.5,3.1-9.5,3.1l2.1,3.2c0,0,4.4-2,7.4-2c2,0,5.4,0.7,5.5,2.7
			c0.1,2.1-5.7,2.8-5.7,2.8s-8.6,0.1-8.6,7.2c0,4.4,4.3,7.3,9.8,7.3c3.1,0,9.1-2.8,9.1-2.8l-2.4-3.8c0,0-4.6,1.8-7,1.9
			c-2,0.1-4.5-0.9-4.5-2.7c0-4.8,14.2,0.4,14.2-9.4C103.1,265.9,97.3,264.7,92.7,264.7"/>
		<path id="path36" class="st3" d="M111,294.7v-6.6h-4.3v-4.8h4.3v-11.4c0,0-0.4-7.7,7.9-7.7c2.3,0,6.8,1.7,6.8,1.7l-1.9,5
			c0,0-1.8-1.5-3.8-1.5c-3.8,0.1-3.8,2.5-3.8,2.5v11.4h7.9v4.8h-7.8v6.6H111"/>
		<path id="path38" class="st3" d="M139.2,284.1h0.6c5.8,0,5.8-5.5,5.8-5.5h-11.8C133.8,278.6,133.5,283.8,139.2,284.1z
			 M139.9,288.6c-7.8,0-11.7-6.4-11.7-12c0-5.8,3.5-12.2,12.2-12.2c3.7,0,8.8,3.2,8.8,3.2l-2.2,3.9c0,0-3.5-2.5-6.6-2.5
			c-6.2,0-6.6,6.1-6.6,6.1h16.6C150.4,275,151.6,288.6,139.9,288.6"/>
		<path id="path40" class="st3" d="M189.3,271.5l2.2-4.4c0,0-3.5-2.3-7.5-2.3c-8.2,0-12.8,6.1-12.8,12c0,9.1,7.3,11.8,12.2,11.8
			c4.4,0,8.3-2.5,8.3-2.5l-2.5-4.4c0,0-1.5,2.4-5.9,2.4s-6.8-3.8-6.8-7.4c0-4,2.7-7.5,6.8-7.5C186.6,269.1,189.3,271.5,189.3,271.5"
			/>
		<path id="path42" class="st3" d="M274.1,267c0.2,0,0.2,0,0.3-0.1s0.1-0.1,0.1-0.2s0-0.1-0.1-0.2c-0.1-0.1-0.2-0.1-0.3-0.1h-0.5
			v0.6H274.1z M274.1,267.4h-1v-2.1h0.5v0.8h0.2l0.7-0.8h0.5l-0.7,0.8c0.2,0,0.4,0.1,0.5,0.2c0.2,0.1,0.2,0.2,0.2,0.5
			c0,0.2-0.1,0.4-0.2,0.5C274.6,267.3,274.4,267.4,274.1,267.4z M274,264.5c-0.5,0-1,0.1-1.3,0.5c-0.3,0.3-0.5,0.8-0.5,1.3
			s0.2,0.9,0.5,1.3c0.3,0.3,0.8,0.5,1.3,0.5s0.9-0.1,1.3-0.5c0.3-0.3,0.5-0.8,0.5-1.3s-0.2-0.9-0.5-1.3
			C275,264.6,274.5,264.5,274,264.5z M274,268.6c-0.7,0-1.2-0.2-1.7-0.7s-0.7-1-0.7-1.6c0-0.7,0.2-1.2,0.7-1.7
			c0.4-0.4,1-0.7,1.7-0.7s1.2,0.2,1.6,0.7c0.5,0.5,0.7,1,0.7,1.7c0,0.7-0.2,1.2-0.7,1.6C275.2,268.3,274.7,268.6,274,268.6"/>
	</g>
</g>
</svg>
