<?xml version="1.0" encoding="utf-8"?>
<!-- Generator: Adobe Illustrator 25.0.1, SVG Export Plug-In . SVG Version: 6.00 Build 0)  -->
<svg version="1.1" id="Layer_1" xmlns="http://www.w3.org/2000/svg" xmlns:xlink="http://www.w3.org/1999/xlink" x="0px" y="0px"
	 width="41.4px" height="25.9px" viewBox="0 0 41.4 25.9" style="enable-background:new 0 0 41.4 25.9;" xml:space="preserve">
<style type="text/css">
	.st0{fill:#FE0000;}
	.st1{fill:#0B3084;}
	.st2{fill:#026B6F;}
	.st3{fill:#FFFFFF;}
</style>
<g>
	<path class="st0" d="M8.1,0h10.4c1.4,0,2.3,1.2,2,2.6l-4.8,20.7c-0.4,1.4-1.8,2.6-3.2,2.6H2.1c-1.4,0-2.3-1.2-2-2.6L4.9,2.7
		C5.2,1.1,6.7,0,8.1,0z"/>
	<path class="st1" d="M17.5,0h11.9c1.4,0,0.8,1.2,0.5,2.6l-4.8,20.6c-0.3,1.4-0.2,2.6-1.7,2.6H11.5c-1.4,0-2.3-1.2-2-2.6l4.8-20.6
		C14.7,1.1,16.1,0,17.5,0z"/>
	<path class="st2" d="M29,0h10.4c1.4,0,2.3,1.2,2,2.6l-4.8,20.6c-0.4,1.5-1.9,2.7-3.3,2.7H23c-1.4,0-2.3-1.2-2-2.6l4.7-20.7
		C26.1,1.1,27.5,0,29,0L29,0z"/>
	<path class="st3" d="M27.3,19.4h1l0.3-0.9h-1L27.3,19.4z M28.1,16.8l-0.3,1.1c0,0,0.4-0.2,0.6-0.2c0.2-0.1,0.5-0.1,0.5-0.1l0.2-0.8
		H28.1 M28.5,15.2l-0.3,1.1c0,0,0.4-0.2,0.5-0.2c0.2-0.1,0.5-0.1,0.5-0.1l0.2-0.8H28.5 M30.7,15.2l-1.3,4.2h0.4l-0.3,0.8h-0.3
		l-0.1,0.3h-1.2l0.1-0.3h-2.4l0.2-0.8H26l1.3-4.2l0.2-0.8h1.2l-0.1,0.5c0,0,0.3-0.2,0.6-0.3c0.3-0.1,2.1-0.1,2.1-0.1l-0.2,0.8
		L30.7,15.2"/>
	<path class="st3" d="M31.2,14.3h1.3v0.5c0,0.1,0.1,0.2,0.2,0.2H33l-0.2,0.8h-0.7c-0.6,0.1-0.8-0.2-0.8-0.5L31.2,14.3z M31.4,18.2
		h-1.3l0.2-0.8h1.4l0.2-0.7h-1.4l0.2-0.8h4l-0.2,0.8h-1.3L33,17.4h1.3l-0.2,0.8h-1.4l-0.2,0.3h0.6l0.2,0.9c0,0.1,0,0.2,0.1,0.2
		c0,0,0.2,0.1,0.3,0.1h0.2l-0.3,0.9h-0.9c-0.2,0-0.2-0.1-0.3-0.2s-0.2-0.2-0.2-0.3L32,19.2l-0.7,0.9c-0.2,0.3-0.5,0.5-1,0.5h-0.9
		l0.2-0.8H30c0.1,0,0.2-0.1,0.2-0.1c0.1,0,0.2-0.1,0.2-0.2L31.4,18.2L31.4,18.2z M17.8,16.2h3.3L20.9,17h-1.4l-0.2,0.7h1.3l-0.2,0.8
		h-1.3l-0.4,1.1c-0.1,0.2,0.3,0.2,0.4,0.2l0.7-0.1l-0.3,0.9H18c-0.2,0-0.2,0-0.4-0.1c-0.2,0-0.2-0.1-0.2-0.2s-0.2-0.2-0.1-0.4
		l0.4-1.4h-0.8l0.2-0.8h0.8l0.2-0.7h-0.8L17.8,16.2L17.8,16.2z M20,14.8h1.3l-0.2,0.8h-1.9L19,15.8c-0.1,0.1-0.2,0.1-0.2,0.1
		c-0.1,0.1-0.3,0.2-0.6,0.2h-0.6l0.2-0.8H18c0.2,0,0.2,0,0.3-0.1l0.2-0.2l0.4-0.6h1.3L20,14.8L20,14.8z"/>
	<path class="st3" d="M22.6,16.1c0,0,0.4-0.3,1-0.5h1.1l0.2-0.5H23L22.6,16.1z M24.4,16.5h-1.9l-0.2,0.4h1.9L24.4,16.5 M21.9,14.3
		H23l-0.1,0.6c0,0,0.4-0.3,0.6-0.4c0.2-0.1,0.8-0.2,0.8-0.2h1.9l-0.6,2.1c-0.1,0.4-0.2,0.6-0.3,0.7s-0.2,0.2-0.3,0.3
		c-0.2,0.1-0.3,0.2-0.5,0.2h-2.4l-0.5,1.7c-0.1,0.2-0.1,0.2-0.1,0.3s0.1,0.1,0.2,0.1l0.8-0.1l-0.3,0.9h-1.5c-0.2,0-0.3,0-0.4-0.1
		s-0.2-0.2-0.2-0.3c0-0.1,0.1-0.2,0.1-0.5L21.9,14.3"/>
	<path class="st3" d="M25.3,17.8l-0.1,0.5c-0.1,0.2-0.1,0.3-0.2,0.4c-0.2,0.1-0.3,0.2-0.6,0.2h-0.7v0.6c0,0.2,0,0.2,0.1,0.2l0.1,0.1
		h0.8l-0.2,0.8h-0.7c-0.5,0-0.8,0-1-0.1c-0.1-0.1-0.1-0.2-0.1-0.3v-2.3h1.1v0.5h0.5c0,0,0.1-0.1,0.1-0.2l0.1-0.4H25.3L25.3,17.8z
		 M9.4,6.5C9.3,6.7,8.6,10,8.6,10c-0.2,0.7-0.3,1.1-0.7,1.4c-0.2,0.2-0.4,0.3-0.8,0.3c-0.4,0-0.8-0.2-0.8-0.7v-0.2l0.2-0.9
		c0,0,0.8-3,0.9-3.4V6.4H5.7L5.6,6.6L4.8,10l-0.1,0.3l-0.2,1c0,0.3,0.1,0.5,0.2,0.7c0.4,0.6,1.3,0.7,1.9,0.7c0.8,0,1.4-0.2,1.9-0.5
		c0.8-0.5,1-1.2,1.2-1.9L9.8,10c0,0,0.8-3.2,0.9-3.5V6.4C9.8,6.6,9.4,6.6,9.4,6.5L9.4,6.5z M13.6,12.8h-1.3v-0.1
		c0.1-0.2,0.1-0.5,0.2-0.7l0.1-0.3c0.1-0.5,0.2-1,0.2-1.2c0-0.1,0.1-0.4-0.2-0.4c-0.2,0-0.2,0.1-0.4,0.2c-0.1,0.2-0.2,1-0.3,1.3
		c-0.2,0.7-0.2,0.8-0.2,1.1l-0.1,0.1h-1.3v-0.1c0.1-0.5,0.2-0.8,0.3-1.3c0.2-1.1,0.3-1.6,0.4-2.2h0.1c0.6-0.1,0.8-0.1,1.4-0.2
		l0.1,0.1l-0.1,0.4c0.1-0.1,0.2-0.2,0.3-0.2c0.3-0.2,0.7-0.2,0.8-0.2c0.3,0,0.6,0.1,0.8,0.4s0.1,0.7-0.2,1.3l-0.1,0.4
		C13.8,12,13.8,12.2,13.6,12.8L13.6,12.8z M15.7,12.8h-1.3c0.1-0.3,0.2-0.4,0.2-0.5c0.1-0.1,0.1-0.2,0.2-0.5
		c0.1-0.4,0.2-0.7,0.2-0.9c0.1-0.2,0.1-0.5,0.1-0.7c0.3-0.1,0.5-0.1,0.7-0.1s0.4-0.1,0.8-0.2c-0.1,0.2-0.2,0.5-0.2,0.8
		c-0.1,0.2-0.2,0.5-0.2,0.8C16,12,16,12.3,16,12.3C15.8,12.4,15.8,12.5,15.7,12.8L15.7,12.8z M19,11c0,0.2-0.2,0.6-0.3,0.8
		C18.6,12,18.5,12,18.3,12c-0.1,0-0.3,0-0.3-0.4c0-0.2,0-0.4,0.1-0.6c0.2-0.6,0.3-1.1,0.7-1.1C19.1,9.9,19.2,10.4,19,11L19,11z
		 M20.4,11c0.2-0.8,0.1-1.2-0.2-1.4c-0.3-0.4-0.8-0.5-1.3-0.5c-0.3,0-1,0-1.6,0.5c-0.4,0.4-0.6,0.9-0.7,1.3
		c-0.1,0.5-0.2,1.3,0.6,1.7c0.2,0.1,0.6,0.2,0.8,0.2c0.6,0,1.2-0.2,1.7-0.7C20.2,11.8,20.3,11.3,20.4,11 M33.1,12.8h-1.4v-0.1
		l0.5-1.8c0.2-0.8,0.2-1.1,0.3-1.6l0.1-0.1C33.2,9.1,33.4,9,34,9v0.1c-0.2,0.5-0.2,1-0.4,1.5C33.3,11.7,33.2,12.2,33.1,12.8z"/>
	<path class="st3" d="M32.2,11c0,0.2-0.2,0.6-0.3,0.8C31.8,12,31.5,12,31.4,12s-0.3,0-0.3-0.4c0-0.2,0-0.4,0.1-0.6
		c0.2-0.6,0.3-1.1,0.7-1.1C32.2,10.1,32.3,10.4,32.2,11z M33.4,11c0.2-0.8-0.5-0.1-0.7-0.3c-0.2-0.4-0.1-1.2-0.8-1.5
		c-0.3-0.1-0.9,0-1.5,0.5c-0.4,0.4-0.6,0.8-0.7,1.3c-0.2,0.5-0.2,1.3,0.5,1.7c0.2,0.1,0.5,0.2,0.8,0.2c0.8-0.1,1.4-1.3,1.9-1.7
		C33.3,10.7,33.4,11.3,33.4,11 M23.9,12.8h-1.3v-0.1c0.1-0.2,0.1-0.5,0.2-0.7l0.1-0.3c0.2-0.5,0.2-1,0.2-1.2c0-0.1,0.1-0.4-0.2-0.4
		c-0.2,0-0.2,0.1-0.4,0.2c-0.1,0.2-0.2,1-0.3,1.3C22,12.3,22,12.4,22,12.7l-0.1,0.1h-1.3v-0.1c0.1-0.5,0.2-0.8,0.3-1.3
		c0.2-1.1,0.3-1.6,0.4-2.2h0.1C22,9.1,22.2,9.1,22.8,9l0.1,0.1l-0.2,0.4c0.1-0.1,0.2-0.2,0.3-0.2c0.3-0.2,0.7-0.2,0.8-0.2
		c0.3,0,0.6,0.1,0.8,0.4s0.1,0.7-0.2,1.3l-0.1,0.4C24.2,12,24.1,12.2,23.9,12.8L23.9,12.8z M28.4,6.5h-2.2c0,0.1-0.1,0.2-0.1,0.2
		l-0.4,1.9c0,0-1,4-1,4.1h1.6c0.1-0.2,0.3-1.3,0.3-1.3l0.2-0.8l0.2-0.2h0.1c0.8,0,1.8,0,2.6-0.5c0.5-0.4,0.8-0.9,1-1.6
		c0.1-0.2,0.1-0.4,0.1-0.5c0-0.2-0.1-0.5-0.2-0.8C30.1,6.5,29.3,6.5,28.4,6.5L28.4,6.5z M29,8.5c-0.1,0.5-0.4,0.8-0.7,0.9
		c-0.3,0.2-0.6,0.2-1,0.2h-0.2V9.5l0.5-1.9V7.4h0.2l0.9,0.1C29,7.7,29.1,8,29,8.5 M38.3,9.2c-0.7,0.1-0.8,0.1-1.4,0.2l-0.1,0.1
		c-0.5,1-0.5,0.8-0.8,1.6v-0.2l-0.1-1.7l-0.1-0.1c-0.7,0.2-0.7,0.2-1.3,0.2l-0.1,0.1v0.1c0.1,0.4,0.1,0.3,0.2,0.9
		c0,0.3,0.1,0.6,0.2,0.9c0.1,0.5,0.1,0.8,0.2,1.5c-0.5,0.7-0.5,1-0.9,1.6v0.1h1.2l0.1-0.1C35.6,13.6,38.3,9.2,38.3,9.2L38.3,9.2z
		 M16.3,9.6c0.4-0.2,0.4-0.6,0.1-0.8c-0.3-0.2-0.8-0.2-1.1,0.2c-0.4,0.2-0.4,0.6-0.1,0.8C15.4,9.9,16,9.8,16.3,9.6z"/>
	<path class="st3" d="M35.3,14.4l-0.6,0.9c-0.2,0.3-0.5,0.5-0.9,0.5H33l0.2-0.8h0.3c0.1,0,0.1-0.1,0.1-0.1l0.3-0.5H35.3L35.3,14.4z"
		/>
</g>
</svg>
